<svg xmlns="http://www.w3.org/2000/svg" width="108" height="77" viewBox="0 0 108 77">
    <g fill="none" fill-rule="evenodd">
        <path fill="#7A1C1C" d="M87.168 73.976h.048L90.984 59h1.68l-4.536 17.28h-1.8L82.32 61.016h-.048L78.264 76.28h-1.8L72 59h1.632l3.72 14.976h.048L81.408 59h1.824l3.936 14.976zm6.71 2.304V63.848h1.44V76.28h-1.44zm-.071-15.144V59h1.584v2.136h-1.584zM96.99 76.28v-1.272l8.256-9.96h-7.704v-1.2h9.552v1.272l-8.256 9.96h8.568v1.2H96.99z"/>
        <path fill="#333" d="M13.771 63.736c-.336-1.472-.96-2.52-1.872-3.144-.912-.624-2.104-.936-3.576-.936-1.04 0-1.936.208-2.688.624a5.433 5.433 0 0 0-1.86 1.68c-.488.704-.848 1.516-1.08 2.436-.232.92-.348 1.892-.348 2.916 0 .96.1 1.904.3 2.832.2.928.532 1.756.996 2.484a5.29 5.29 0 0 0 1.872 1.764c.784.448 1.768.672 2.952.672.736 0 1.408-.12 2.016-.36a5.03 5.03 0 0 0 1.596-.996c.456-.424.84-.924 1.152-1.5a7.55 7.55 0 0 0 .708-1.896h1.704c-.192.832-.472 1.62-.84 2.364a6.74 6.74 0 0 1-1.452 1.956c-.6.56-1.328 1.004-2.184 1.332-.856.328-1.86.492-3.012.492-1.328 0-2.464-.244-3.408-.732a6.471 6.471 0 0 1-2.316-1.98c-.6-.832-1.036-1.796-1.308-2.892a14.456 14.456 0 0 1-.408-3.492c0-1.648.204-3.048.612-4.2.408-1.152.972-2.092 1.692-2.82a6.393 6.393 0 0 1 2.544-1.584c.976-.328 2.04-.492 3.192-.492.88 0 1.7.116 2.46.348a6.04 6.04 0 0 1 2.016 1.044 5.665 5.665 0 0 1 1.44 1.716c.376.68.636 1.468.78 2.364h-1.68zM17.554 76V58.72h1.44v6.576a9.146 9.146 0 0 1 1.788-1.488c.616-.384 1.356-.576 2.22-.576.768 0 1.48.132 2.136.396.656.264 1.208.724 1.656 1.38.304.448.484.908.54 1.38.056.472.084.964.084 1.476V76h-1.44v-8.112c0-1.12-.248-1.96-.744-2.52s-1.32-.84-2.472-.84c-.448 0-.856.068-1.224.204-.368.136-.7.316-.996.54a3.617 3.617 0 0 0-1.236 1.68c-.144.4-.232.784-.264 1.152-.032.368-.048.768-.048 1.2V76h-1.44zm13.791 0h-1.44V63.568h1.44v2.328h.048c.4-.992.916-1.684 1.548-2.076.632-.392 1.468-.588 2.508-.588v1.56c-.816-.016-1.488.112-2.016.384s-.948.64-1.26 1.104c-.312.464-.528 1.012-.648 1.644-.12.632-.18 1.292-.18 1.98V76zm9.927.336a6.471 6.471 0 0 1-2.244-.432 5.026 5.026 0 0 1-1.824-1.224c-.52-.544-.932-1.224-1.236-2.04-.304-.816-.456-1.768-.456-2.856 0-.912.12-1.764.36-2.556s.6-1.484 1.08-2.076a5.126 5.126 0 0 1 1.8-1.404c.72-.344 1.56-.516 2.52-.516.976 0 1.824.172 2.544.516.72.344 1.32.808 1.8 1.392.48.584.836 1.276 1.068 2.076.232.8.348 1.656.348 2.568 0 .992-.136 1.888-.408 2.688-.272.8-.66 1.488-1.164 2.064a5.126 5.126 0 0 1-1.824 1.332c-.712.312-1.5.468-2.364.468zm4.224-6.552a8.49 8.49 0 0 0-.24-2.064 4.89 4.89 0 0 0-.744-1.668 3.574 3.574 0 0 0-1.296-1.116c-.528-.272-1.176-.408-1.944-.408-.752 0-1.396.148-1.932.444a3.781 3.781 0 0 0-1.308 1.176 5.17 5.17 0 0 0-.744 1.68 7.939 7.939 0 0 0-.24 1.956c0 .768.092 1.476.276 2.124.184.648.452 1.204.804 1.668a3.61 3.61 0 0 0 1.32 1.08c.528.256 1.136.384 1.824.384.752 0 1.396-.148 1.932-.444a3.737 3.737 0 0 0 1.308-1.188 5.327 5.327 0 0 0 .744-1.68c.16-.624.24-1.272.24-1.944zM50.046 76h-1.44V63.568h1.44v1.728a9.146 9.146 0 0 1 1.789-1.488c.616-.384 1.356-.576 2.22-.576.768 0 1.48.132 2.136.396.656.264 1.208.724 1.656 1.38.304.448.484.908.54 1.38.056.472.084.964.084 1.476V76h-1.44v-8.112c0-1.12-.248-1.96-.744-2.52s-1.32-.84-2.472-.84c-.448 0-.856.068-1.224.204-.368.136-.7.316-.996.54a3.617 3.617 0 0 0-1.236 1.68c-.144.4-.232.784-.264 1.152-.032.368-.048.768-.048 1.2V76zm15.784.336a6.471 6.471 0 0 1-2.244-.432 5.026 5.026 0 0 1-1.824-1.224c-.52-.544-.932-1.224-1.236-2.04-.304-.816-.456-1.768-.456-2.856 0-.912.12-1.764.36-2.556s.6-1.484 1.08-2.076a5.126 5.126 0 0 1 1.8-1.404c.72-.344 1.56-.516 2.52-.516.976 0 1.824.172 2.544.516.72.344 1.32.808 1.8 1.392.48.584.836 1.276 1.068 2.076.232.8.348 1.656.348 2.568 0 .992-.136 1.888-.408 2.688-.272.8-.66 1.488-1.164 2.064a5.126 5.126 0 0 1-1.824 1.332c-.712.312-1.5.468-2.364.468zm4.224-6.552a8.49 8.49 0 0 0-.24-2.064 4.89 4.89 0 0 0-.744-1.668 3.574 3.574 0 0 0-1.296-1.116c-.528-.272-1.176-.408-1.944-.408-.752 0-1.396.148-1.932.444a3.781 3.781 0 0 0-1.308 1.176 5.17 5.17 0 0 0-.744 1.68 7.939 7.939 0 0 0-.24 1.956c0 .768.092 1.476.276 2.124.184.648.452 1.204.804 1.668a3.61 3.61 0 0 0 1.32 1.08c.528.256 1.136.384 1.824.384.752 0 1.396-.148 1.932-.444a3.737 3.737 0 0 0 1.308-1.188 5.327 5.327 0 0 0 .744-1.68c.16-.624.24-1.272.24-1.944z"/>
        <g fill="#7A1C1C">
            <path d="M54 48c13.255 0 24-10.745 24-24S67.255 0 54 0 30 10.745 30 24s10.745 24 24 24zm0-.615c12.915 0 23.385-10.47 23.385-23.385C77.385 11.085 66.915.615 54 .615 41.085.615 30.615 11.085 30.615 24c0 12.915 10.47 23.385 23.385 23.385z"/>
            <path d="M54.88 23.888a1.221 1.221 0 1 1-2.314.148l-8.011-4.8.314-.525 7.997 4.792a1.22 1.22 0 0 1 1.866.119l16.391-10.335.163.258L54.88 23.888z"/>
        </g>
        <g fill="#7A1C1C">
            <path d="M54 48c13.255 0 24-10.745 24-24S67.255 0 54 0 30 10.745 30 24s10.745 24 24 24zm0-.615c12.915 0 23.385-10.47 23.385-23.385C77.385 11.085 66.915.615 54 .615 41.085.615 30.615 11.085 30.615 24c0 12.915 10.47 23.385 23.385 23.385z"/>
            <path d="M54.88 23.888a1.221 1.221 0 1 1-2.314.148l-8.011-4.8.314-.525 7.997 4.792a1.22 1.22 0 0 1 1.866.119l16.391-10.335.163.258L54.88 23.888z"/>
        </g>
    </g>
</svg>
