<svg xmlns="http://www.w3.org/2000/svg" width="14" height="14" viewBox="0 0 14 14">
    <path fill="#212121" fill-rule="nonzero" d="M13.923 13.553L9.845 9.468c1.04-1.005 1.684-2.39 1.684-3.917C11.53 2.49 8.944 0 5.765 0 2.585 0 0 2.49 0 5.55c0 3.062 2.586 5.551 5.765 5.551 1.395 0 2.676-.48 3.674-1.277l4.089 4.095a.278.278 0 0 0 .198.081.28.28 0 0 0 .19-.074.258.258 0 0 0 .007-.373zm-8.158-2.98C2.889 10.573.549 8.32.549 5.55c0-2.77 2.34-5.022 5.216-5.022C8.64.529 10.98 2.78 10.98 5.55c0 2.769-2.34 5.022-5.215 5.022z"/>
</svg>
