<svg width="10" height="22" viewBox="0 0 10 22" fill="none" xmlns="http://www.w3.org/2000/svg">
<path d="M2.18223 4.12371C2.18223 4.6603 2.18223 7.0553 2.18223 7.0553H0.0344543V10.64H2.18223V21.2927H6.59421V10.6403H9.55485C9.55485 10.6403 9.83213 8.92148 9.96653 7.04208C9.58119 7.04208 6.61089 7.04208 6.61089 7.04208C6.61089 7.04208 6.61089 4.95658 6.61089 4.59104C6.61089 4.2247 7.09193 3.73193 7.56738 3.73193C8.04193 3.73193 9.04351 3.73193 9.97119 3.73193C9.97119 3.24386 9.97119 1.55748 9.97119 0C8.73277 0 7.32386 0 6.70282 0C2.07317 -0.000247525 2.18223 3.58807 2.18223 4.12371Z" fill="white"/>
</svg>
