<svg width="20" height="20" viewBox="0 0 20 20" fill="none" xmlns="http://www.w3.org/2000/svg">
<path fill-rule="evenodd" clip-rule="evenodd" d="M5.1087 0H14.8913C17.7128 0 20 2.28724 20 5.1087V14.8913C20 17.7128 17.7128 20 14.8913 20H5.1087C2.28724 20 0 17.7128 0 14.8913V5.1087C0 2.28724 2.28724 0 5.1087 0ZM10 14.1304C12.2812 14.1304 14.1304 12.2812 14.1304 10C14.1304 7.71882 12.2812 5.86957 10 5.86957C7.71882 5.86957 5.86957 7.71882 5.86957 10C5.86957 12.2812 7.71882 14.1304 10 14.1304ZM16.7391 4.61957C16.7391 5.30992 16.1795 5.86957 15.4891 5.86957C14.7988 5.86957 14.2391 5.30992 14.2391 4.61957C14.2391 3.92921 14.7988 3.36957 15.4891 3.36957C16.1795 3.36957 16.7391 3.92921 16.7391 4.61957Z" fill="white"/>
</svg>
