<svg width="143" height="152" viewBox="0 0 143 152" fill="none" xmlns="http://www.w3.org/2000/svg">
<path fill-rule="evenodd" clip-rule="evenodd" d="M139.772 34.6558L72.4445 2.2155C71.8475 1.92817 71.1525 1.92817 70.5558 2.2155L3.22771 34.6558C2.47701 35.0174 2 35.7762 2 36.6081V115.392C2 116.224 2.47701 116.982 3.22771 117.344L70.5555 149.784C70.8539 149.928 71.1771 150 71.5 150C71.8229 150 72.1459 149.928 72.4445 149.784L139.772 117.344C140.523 116.982 141 116.224 141 115.392V36.6084C141 35.7759 140.523 35.0177 139.772 34.6558ZM71.5 6.57542L133.832 36.6081L115.763 45.3141C115.649 45.2271 115.528 45.1467 115.395 45.0828L53.487 15.2545L71.5 6.57542ZM110.822 47.6948L48.5813 17.7058L35.8594 23.8602L98.0746 53.8371L110.822 47.6948ZM112.278 51.8076V74.5123L100.371 80.2496V57.5449L112.278 51.8076ZM73.6722 144.378L136.656 114.031V40.0624L116.623 49.7148V75.8735C116.623 76.7057 116.146 77.4642 115.395 77.8258L99.1435 85.6562C98.8444 85.8004 98.5214 85.8718 98.1994 85.8718C97.7971 85.8718 97.396 85.7605 97.0444 85.5403C96.4112 85.1434 96.0269 84.4499 96.0269 83.7039V57.6886C96.0171 57.6756 96.0064 57.6637 95.9968 57.6504L30.7467 26.2111L9.16843 36.6081L56.1944 59.2665C57.2746 59.7871 57.7276 61.0833 57.206 62.1615C56.8315 62.9359 56.0559 63.3874 55.2484 63.3874C54.9319 63.3874 54.6101 63.318 54.3057 63.1712L6.34433 40.0621V114.031L69.3278 144.378V70.409L63.5881 67.6436C62.5078 67.123 62.0548 65.8268 62.5765 64.7486C63.0981 63.6704 64.3964 63.2177 65.477 63.7389L71.5 66.6411L86.8068 59.2657C87.8874 58.7448 89.1858 59.1975 89.7074 60.2754C90.229 61.3539 89.776 62.6497 88.6957 63.1703L73.6722 70.409V144.378Z" fill="black"/>
<path d="M72.4445 2.2155L73.0956 0.864175L73.095 0.863929L72.4445 2.2155ZM139.772 34.6558L140.424 33.3047L140.423 33.3045L139.772 34.6558ZM70.5558 2.2155L69.905 0.864053L69.9047 0.864174L70.5558 2.2155ZM3.22771 34.6558L3.87868 36.0072L3.87881 36.0071L3.22771 34.6558ZM3.22771 117.344L3.87881 115.993L3.87868 115.993L3.22771 117.344ZM70.5555 149.784L69.9044 151.136L69.9047 151.136L70.5555 149.784ZM72.4445 149.784L73.0948 151.136L73.0956 151.136L72.4445 149.784ZM139.772 117.344L139.121 115.993L139.121 115.993L139.772 117.344ZM133.832 36.6081L134.483 37.9594L137.287 36.6081L134.483 35.2568L133.832 36.6081ZM71.5 6.57542L72.1511 5.2241L71.5 4.91039L70.8489 5.2241L71.5 6.57542ZM115.763 45.3141L114.855 46.508L115.586 47.0643L116.414 46.6654L115.763 45.3141ZM115.395 45.0828L114.744 46.4342L114.744 46.4343L115.395 45.0828ZM53.487 15.2545L52.8359 13.9032L50.0312 15.2545L52.8359 16.6058L53.487 15.2545ZM48.5813 17.7058L49.2324 16.3544L48.58 16.0401L47.9281 16.3555L48.5813 17.7058ZM110.822 47.6948L111.473 49.0461L114.278 47.6948L111.473 46.3435L110.822 47.6948ZM35.8594 23.8602L35.2062 22.5099L32.4094 23.8629L35.2083 25.2115L35.8594 23.8602ZM98.0746 53.8371L97.4235 55.1884L98.0746 55.5021L98.7257 55.1884L98.0746 53.8371ZM112.278 74.5123L112.93 75.8636L113.778 75.4546V74.5123H112.278ZM112.278 51.8076H113.778V49.4198L111.627 50.4563L112.278 51.8076ZM100.371 80.2496H98.8713V82.6374L101.022 81.6009L100.371 80.2496ZM100.371 57.5449L99.7201 56.1936L98.8713 56.6026V57.5449H100.371ZM136.656 114.031L137.307 115.383L138.156 114.974V114.031H136.656ZM73.6722 144.378H72.1722V146.765L74.3233 145.729L73.6722 144.378ZM136.656 40.0624H138.156V37.6746L136.005 38.7111L136.656 40.0624ZM116.623 49.7148L115.972 48.3635L115.123 48.7725V49.7148H116.623ZM115.395 77.8258L114.744 76.4744L114.744 76.4745L115.395 77.8258ZM99.1435 85.6562L98.4924 84.3049L98.4921 84.305L99.1435 85.6562ZM97.0444 85.5403L96.2476 86.8112L96.248 86.8115L97.0444 85.5403ZM96.0269 57.6886H97.5269V57.1847L97.2228 56.7831L96.0269 57.6886ZM95.9968 57.6504L97.2148 56.7748L96.9919 56.4648L96.6479 56.2991L95.9968 57.6504ZM30.7467 26.2111L31.3978 24.8598L30.7467 24.5461L30.0956 24.8598L30.7467 26.2111ZM9.16843 36.6081L8.51733 35.2568L5.71276 36.6081L8.51733 37.9594L9.16843 36.6081ZM56.1944 59.2665L56.8455 57.9153L56.8455 57.9152L56.1944 59.2665ZM57.206 62.1615L55.8557 61.5083L55.8556 61.5085L57.206 62.1615ZM54.3057 63.1712L54.9575 61.8202L54.9568 61.8199L54.3057 63.1712ZM6.34433 40.0621L6.99543 38.7108L4.84433 37.6743V40.0621H6.34433ZM6.34433 114.031H4.84433V114.973L5.69323 115.382L6.34433 114.031ZM69.3278 144.378L68.6767 145.729L70.8278 146.766V144.378H69.3278ZM69.3278 70.409H70.8278V69.4667L69.9789 69.0577L69.3278 70.409ZM63.5881 67.6436L62.9369 68.9948L62.937 68.9949L63.5881 67.6436ZM65.477 63.7389L64.8254 65.09L64.8259 65.0902L65.477 63.7389ZM71.5 66.6411L70.8489 67.9924L71.5 68.3062L72.1511 67.9924L71.5 66.6411ZM86.8068 59.2657L87.4579 60.617L87.4582 60.6169L86.8068 59.2657ZM89.7074 60.2754L91.0577 59.6223L91.0576 59.622L89.7074 60.2754ZM88.6957 63.1703L89.3468 64.5217L89.3469 64.5216L88.6957 63.1703ZM73.6722 70.409L73.0211 69.0577L72.1722 69.4667V70.409H73.6722ZM71.7934 3.56682L139.121 36.0071L140.423 33.3045L73.0956 0.864175L71.7934 3.56682ZM71.2067 3.56694C71.3919 3.47774 71.608 3.4776 71.7939 3.56706L73.095 0.863929C72.0871 0.378738 70.913 0.378601 69.905 0.864053L71.2067 3.56694ZM3.87881 36.0071L71.2069 3.56682L69.9047 0.864174L2.57661 33.3045L3.87881 36.0071ZM3.5 36.6081C3.5 36.3532 3.64623 36.1191 3.87868 36.0072L2.57674 33.3044C1.30778 33.9157 0.5 35.1992 0.5 36.6081H3.5ZM3.5 115.392V36.6081H0.5V115.392H3.5ZM3.87868 115.993C3.64623 115.881 3.5 115.647 3.5 115.392H0.5C0.5 116.801 1.30778 118.084 2.57674 118.695L3.87868 115.993ZM71.2066 148.433L3.87881 115.993L2.57661 118.695L69.9044 151.136L71.2066 148.433ZM71.5 148.5C71.3997 148.5 71.2993 148.478 71.2064 148.433L69.9047 151.136C70.4084 151.378 70.9544 151.5 71.5 151.5V148.5ZM71.7941 148.433C71.7004 148.478 71.6 148.5 71.5 148.5V151.5C72.0459 151.5 72.5913 151.378 73.0948 151.136L71.7941 148.433ZM139.121 115.993L71.7934 148.433L73.0956 151.136L140.423 118.695L139.121 115.993ZM139.5 115.392C139.5 115.647 139.354 115.881 139.121 115.993L140.423 118.695C141.692 118.084 142.5 116.801 142.5 115.392H139.5ZM139.5 36.6084V115.392H142.5V36.6084H139.5ZM139.121 36.0069C139.354 36.1194 139.5 36.3535 139.5 36.6084H142.5C142.5 35.1983 141.691 33.916 140.424 33.3047L139.121 36.0069ZM134.483 35.2568L72.1511 5.2241L70.8489 7.92674L133.18 37.9594L134.483 35.2568ZM116.414 46.6654L134.483 37.9594L133.18 35.2568L115.112 43.9628L116.414 46.6654ZM114.744 46.4343C114.756 46.44 114.789 46.4579 114.855 46.508L116.671 44.1202C116.508 43.9963 116.299 43.8535 116.046 43.7314L114.744 46.4343ZM52.8359 16.6058L114.744 46.4342L116.046 43.7315L54.1381 13.9032L52.8359 16.6058ZM70.8489 5.2241L52.8359 13.9032L54.1381 16.6058L72.1511 7.92674L70.8489 5.2241ZM47.9302 19.0571L110.171 49.0461L111.473 46.3435L49.2324 16.3544L47.9302 19.0571ZM36.5126 25.2105L49.2346 19.0561L47.9281 16.3555L35.2062 22.5099L36.5126 25.2105ZM98.7257 52.4858L36.5105 22.5089L35.2083 25.2115L97.4235 55.1884L98.7257 52.4858ZM110.171 46.3435L97.4234 52.4858L98.7257 55.1884L111.473 49.0461L110.171 46.3435ZM113.778 74.5123V51.8076H110.778V74.5123H113.778ZM101.022 81.6009L112.93 75.8636L111.627 73.161L99.7201 78.8983L101.022 81.6009ZM98.8713 57.5449V80.2496H101.871V57.5449H98.8713ZM111.627 50.4563L99.7201 56.1936L101.022 58.8962L112.93 53.1589L111.627 50.4563ZM136.005 112.68L73.0211 143.026L74.3233 145.729L137.307 115.383L136.005 112.68ZM135.156 40.0624V114.031H138.156V40.0624H135.156ZM117.274 51.0661L137.307 41.4137L136.005 38.7111L115.972 48.3635L117.274 51.0661ZM118.123 75.8735V49.7148H115.123V75.8735H118.123ZM116.046 79.1772C117.315 78.566 118.123 77.2828 118.123 75.8735H115.123C115.123 76.1286 114.977 76.3624 114.744 76.4744L116.046 79.1772ZM99.7946 87.0075L116.046 79.1771L114.744 76.4745L98.4924 84.3049L99.7946 87.0075ZM98.1994 87.3718C98.7432 87.3718 99.2892 87.2512 99.795 87.0074L98.4921 84.305C98.3995 84.3497 98.2997 84.3718 98.1994 84.3718V87.3718ZM96.248 86.8115C96.8429 87.1841 97.5208 87.3718 98.1994 87.3718V84.3718C98.0734 84.3718 97.9491 84.337 97.8407 84.2691L96.248 86.8115ZM94.5269 83.7039C94.5269 84.9677 95.178 86.1407 96.2476 86.8112L97.8411 84.2694C97.6445 84.1461 97.5269 83.9322 97.5269 83.7039H94.5269ZM94.5269 57.6886V83.7039H97.5269V57.6886H94.5269ZM94.7789 58.526C94.7969 58.5511 94.8129 58.5719 94.8247 58.587C94.8362 58.6015 94.8459 58.6135 94.8498 58.6183C94.8564 58.6263 94.853 58.6222 94.8518 58.6206C94.8488 58.617 94.8411 58.6073 94.8311 58.594L97.2228 56.7831C97.2078 56.7633 97.195 56.7473 97.1871 56.7374C97.183 56.7324 97.1796 56.7281 97.1774 56.7255C97.1764 56.7242 97.1754 56.723 97.1748 56.7223C97.1741 56.7215 97.1739 56.7212 97.1737 56.7209C97.1733 56.7204 97.1742 56.7216 97.1758 56.7235C97.1774 56.7255 97.1801 56.7289 97.1836 56.7333C97.1904 56.742 97.2015 56.7564 97.2148 56.7748L94.7789 58.526ZM30.0956 27.5624L95.3457 59.0017L96.6479 56.2991L31.3978 24.8598L30.0956 27.5624ZM9.81954 37.9594L31.3978 27.5624L30.0956 24.8598L8.51733 35.2568L9.81954 37.9594ZM56.8455 57.9152L9.81954 35.2568L8.51733 37.9594L55.5432 60.6179L56.8455 57.9152ZM58.5563 62.8147C59.4398 60.9884 58.6713 58.7951 56.8455 57.9153L55.5432 60.6178C55.8779 60.7792 56.0154 61.1782 55.8557 61.5083L58.5563 62.8147ZM55.2484 64.8874C56.6081 64.8874 57.9215 64.1274 58.5564 62.8145L55.8556 61.5085C55.7415 61.7444 55.5037 61.8874 55.2484 61.8874V64.8874ZM53.654 64.5222C54.1664 64.7694 54.7116 64.8874 55.2484 64.8874V61.8874C55.1522 61.8874 55.0538 61.8667 54.9575 61.8202L53.654 64.5222ZM5.69323 41.4134L53.6546 64.5225L54.9568 61.8199L6.99543 38.7108L5.69323 41.4134ZM7.84433 114.031V40.0621H4.84433V114.031H7.84433ZM69.9789 143.026L6.99543 112.68L5.69323 115.382L68.6767 145.729L69.9789 143.026ZM67.8278 70.409V144.378H70.8278V70.409H67.8278ZM62.937 68.9949L68.6768 71.7604L69.9789 69.0577L64.2392 66.2922L62.937 68.9949ZM61.2262 64.0954C60.3426 65.9217 61.1111 68.115 62.9369 68.9948L64.2393 66.2923C63.9045 66.131 63.7671 65.7319 63.9267 65.4019L61.2262 64.0954ZM66.1287 62.3879C64.3032 61.5074 62.1086 62.2714 61.2262 64.0954L63.9267 65.4019C64.0876 65.0695 64.4897 64.9281 64.8254 65.09L66.1287 62.3879ZM72.1511 65.2898L66.1282 62.3876L64.8259 65.0902L70.8489 67.9924L72.1511 65.2898ZM86.1557 57.9144L70.8489 65.2898L72.1511 67.9924L87.4579 60.617L86.1557 57.9144ZM91.0576 59.622C90.1751 57.7983 87.9807 57.0347 86.1555 57.9145L87.4582 60.6169C87.7941 60.4549 88.1964 60.5966 88.3572 60.9288L91.0576 59.622ZM89.3469 64.5216C91.1727 63.6417 91.9411 61.4488 91.0577 59.6223L88.357 60.9285C88.5168 61.2589 88.3793 61.6577 88.0445 61.8191L89.3469 64.5216ZM74.3233 71.7603L89.3468 64.5217L88.0446 61.819L73.0211 69.0577L74.3233 71.7603ZM75.1722 144.378V70.409H72.1722V144.378H75.1722Z" fill="white"/>
<path d="M23.7914 104.923L14.0677 100.214C13.004 99.6985 11.7265 100.146 11.2131 101.213C10.6998 102.28 11.1456 103.562 12.2087 104.077L21.9324 108.786C22.232 108.931 22.5487 109 22.8602 109C23.6549 109 24.4182 108.553 24.7867 107.787C25.3003 106.72 24.8545 105.439 23.7914 104.923Z" fill="black" stroke="white" stroke-width="3"/>
<path d="M32.7879 99.0235L14.0761 90.2086C13.0097 89.7062 11.7283 90.1424 11.2135 91.1831C10.6991 92.2235 11.1461 93.4741 12.2122 93.9765L30.924 102.791C31.2244 102.933 31.542 103 31.8544 103C32.6513 103 33.4167 102.564 33.7863 101.817C34.3011 100.776 33.854 99.5255 32.7879 99.0235Z" fill="black" stroke="white" stroke-width="3"/>
</svg>
