<svg width="108" height="77" viewBox="0 0 108 77" fill="none" xmlns="http://www.w3.org/2000/svg">
<path fill-rule="evenodd" clip-rule="evenodd" d="M87.168 73.976H87.216L90.984 59H92.664L88.128 76.28H86.328L82.32 61.016H82.272L78.264 76.28H76.464L72 59H73.632L77.352 73.976H77.4L81.408 59H83.232L87.168 73.976ZM93.8789 76.28V63.848H95.3189V76.28H93.8789ZM93.8069 61.136V59H95.3909V61.136H93.8069ZM96.9898 76.28V75.008L105.246 65.048H97.5418V63.848H107.094V65.12L98.8378 75.08H107.406V76.28H96.9898Z" fill="white"/>
<path fill-rule="evenodd" clip-rule="evenodd" d="M13.7713 63.7359C13.4353 62.2639 12.8113 61.2159 11.8993 60.5919C10.9873 59.9679 9.79528 59.6559 8.32327 59.6559C7.28327 59.6559 6.38727 59.8639 5.63527 60.2799C4.88327 60.6959 4.26327 61.2559 3.77527 61.9599C3.28727 62.6639 2.92727 63.4759 2.69527 64.3959C2.46327 65.3159 2.34727 66.2879 2.34727 67.3119C2.34727 68.2719 2.44727 69.2159 2.64727 70.1439C2.84727 71.0719 3.17927 71.8999 3.64327 72.6279C4.10727 73.3559 4.73127 73.9439 5.51527 74.3919C6.29927 74.8399 7.28327 75.0639 8.46727 75.0639C9.20327 75.0639 9.87527 74.9439 10.4833 74.7039C11.0913 74.4639 11.6233 74.1319 12.0793 73.7079C12.5353 73.2839 12.9193 72.7839 13.2313 72.2079C13.5433 71.6319 13.7793 70.9999 13.9393 70.3119H15.6433C15.4513 71.1439 15.1713 71.9319 14.8033 72.6759C14.4353 73.4199 13.9513 74.0719 13.3513 74.6319C12.7513 75.1919 12.0233 75.6359 11.1673 75.9639C10.3113 76.2919 9.30728 76.4559 8.15527 76.4559C6.82726 76.4559 5.69128 76.2119 4.74727 75.7239C3.80327 75.2359 3.03127 74.5759 2.43127 73.7439C1.83127 72.9119 1.39527 71.9479 1.12327 70.8519C0.85127 69.7559 0.715271 68.5919 0.715271 67.3599C0.715271 65.7119 0.919269 64.3119 1.32727 63.1599C1.73527 62.0079 2.29927 61.0679 3.01927 60.3399C3.73927 59.6119 4.58727 59.0839 5.56327 58.7559C6.53928 58.4279 7.60327 58.2639 8.75527 58.2639C9.63527 58.2639 10.4553 58.3799 11.2153 58.6119C11.9753 58.8439 12.6473 59.1919 13.2313 59.6559C13.8153 60.1199 14.2953 60.6919 14.6713 61.3719C15.0473 62.0519 15.3073 62.8399 15.4513 63.7359H13.7713ZM17.5542 75.9999V58.7199H18.9942V65.2959C19.5702 64.6879 20.1662 64.1919 20.7822 63.8079C21.3982 63.4239 22.1382 63.2319 23.0022 63.2319C23.7702 63.2319 24.4822 63.3639 25.1382 63.6279C25.7942 63.8919 26.3462 64.3519 26.7942 65.0079C27.0982 65.4559 27.2782 65.9159 27.3342 66.3879C27.3902 66.8599 27.4182 67.3519 27.4182 67.8639V75.9999H25.9782V67.8879C25.9782 66.7679 25.7302 65.9279 25.2342 65.3679C24.7382 64.8079 23.9142 64.5279 22.7622 64.5279C22.3142 64.5279 21.9062 64.5959 21.5382 64.7319C21.1702 64.8679 20.8382 65.0479 20.5422 65.2719C20.2462 65.4959 19.9942 65.7519 19.7862 66.0399C19.5782 66.3279 19.4182 66.6319 19.3062 66.9519C19.1622 67.3519 19.0742 67.7359 19.0422 68.1039C19.0102 68.4719 18.9942 68.8719 18.9942 69.3039V75.9999H17.5542ZM31.3451 75.9999H29.9051V63.5679H31.3451V65.8959H31.3931C31.7931 64.9039 32.3091 64.2119 32.9411 63.8199C33.5731 63.4279 34.4091 63.2319 35.4491 63.2319V64.7919C34.6331 64.7759 33.9611 64.9039 33.4331 65.1759C32.9051 65.4479 32.4851 65.8159 32.1731 66.2799C31.8611 66.7439 31.6451 67.2919 31.5251 67.9239C31.4051 68.5559 31.3451 69.2159 31.3451 69.9039V75.9999ZM41.272 76.3359C40.472 76.3199 39.724 76.1759 39.028 75.9039C38.332 75.6319 37.724 75.2239 37.204 74.6799C36.684 74.1359 36.272 73.4559 35.968 72.6399C35.664 71.8239 35.512 70.8719 35.512 69.7839C35.512 68.8719 35.632 68.0199 35.872 67.2279C36.112 66.4359 36.472 65.7439 36.952 65.1519C37.432 64.5599 38.032 64.0919 38.752 63.7479C39.472 63.4039 40.312 63.2319 41.272 63.2319C42.248 63.2319 43.096 63.4039 43.816 63.7479C44.536 64.0919 45.136 64.5559 45.616 65.1399C46.096 65.7239 46.452 66.4159 46.684 67.2159C46.916 68.0159 47.032 68.8719 47.032 69.7839C47.032 70.7759 46.896 71.6719 46.624 72.4719C46.352 73.2719 45.964 73.9599 45.46 74.5359C44.956 75.1119 44.348 75.5559 43.636 75.8679C42.924 76.1799 42.136 76.3359 41.272 76.3359ZM45.496 69.7839C45.496 69.0479 45.416 68.3599 45.256 67.7199C45.096 67.0799 44.848 66.5239 44.512 66.0519C44.176 65.5799 43.744 65.2079 43.216 64.9359C42.688 64.6639 42.04 64.5279 41.272 64.5279C40.52 64.5279 39.876 64.6759 39.34 64.9719C38.804 65.2679 38.368 65.6599 38.032 66.1479C37.696 66.6359 37.448 67.1959 37.288 67.8279C37.128 68.4599 37.048 69.1119 37.048 69.7839C37.048 70.5519 37.14 71.2599 37.324 71.9079C37.508 72.5559 37.776 73.1119 38.128 73.5759C38.48 74.0399 38.92 74.3999 39.448 74.6559C39.976 74.9119 40.584 75.0399 41.272 75.0399C42.024 75.0399 42.668 74.8919 43.204 74.5959C43.74 74.2999 44.176 73.9039 44.512 73.4079C44.848 72.9119 45.096 72.3519 45.256 71.7279C45.416 71.1039 45.496 70.4559 45.496 69.7839ZM50.0469 75.9999H48.6069V63.5679H50.0469V65.2959C50.6229 64.6879 51.2189 64.1919 51.8349 63.8079C52.4509 63.4239 53.1909 63.2319 54.0549 63.2319C54.8229 63.2319 55.5349 63.3639 56.1909 63.6279C56.8469 63.8919 57.3989 64.3519 57.8469 65.0079C58.1509 65.4559 58.3309 65.9159 58.3869 66.3879C58.4429 66.8599 58.4709 67.3519 58.4709 67.8639V75.9999H57.0309V67.8879C57.0309 66.7679 56.7829 65.9279 56.2869 65.3679C55.7909 64.8079 54.9669 64.5279 53.8149 64.5279C53.3669 64.5279 52.9589 64.5959 52.5909 64.7319C52.2229 64.8679 51.8909 65.0479 51.5949 65.2719C51.2989 65.4959 51.0469 65.7519 50.8389 66.0399C50.6309 66.3279 50.4709 66.6319 50.3589 66.9519C50.2149 67.3519 50.1269 67.7359 50.0949 68.1039C50.0629 68.4719 50.0469 68.8719 50.0469 69.3039V75.9999ZM65.8298 76.3359C65.0298 76.3199 64.2818 76.1759 63.5858 75.9039C62.8898 75.6319 62.2818 75.2239 61.7618 74.6799C61.2418 74.1359 60.8298 73.4559 60.5258 72.6399C60.2218 71.8239 60.0698 70.8719 60.0698 69.7839C60.0698 68.8719 60.1898 68.0199 60.4298 67.2279C60.6698 66.4359 61.0298 65.7439 61.5098 65.1519C61.9898 64.5599 62.5898 64.0919 63.3098 63.7479C64.0298 63.4039 64.8698 63.2319 65.8298 63.2319C66.8058 63.2319 67.6538 63.4039 68.3738 63.7479C69.0938 64.0919 69.6938 64.5559 70.1738 65.1399C70.6538 65.7239 71.0098 66.4159 71.2418 67.2159C71.4738 68.0159 71.5898 68.8719 71.5898 69.7839C71.5898 70.7759 71.4538 71.6719 71.1818 72.4719C70.9098 73.2719 70.5218 73.9599 70.0178 74.5359C69.5138 75.1119 68.9058 75.5559 68.1938 75.8679C67.4818 76.1799 66.6938 76.3359 65.8298 76.3359ZM70.0538 69.7839C70.0538 69.0479 69.9738 68.3599 69.8138 67.7199C69.6538 67.0799 69.4058 66.5239 69.0698 66.0519C68.7338 65.5799 68.3018 65.2079 67.7738 64.9359C67.2458 64.6639 66.5978 64.5279 65.8298 64.5279C65.0778 64.5279 64.4338 64.6759 63.8978 64.9719C63.3618 65.2679 62.9258 65.6599 62.5898 66.1479C62.2538 66.6359 62.0058 67.1959 61.8458 67.8279C61.6858 68.4599 61.6058 69.1119 61.6058 69.7839C61.6058 70.5519 61.6978 71.2599 61.8818 71.9079C62.0658 72.5559 62.3338 73.1119 62.6858 73.5759C63.0378 74.0399 63.4778 74.3999 64.0058 74.6559C64.5338 74.9119 65.1418 75.0399 65.8298 75.0399C66.5818 75.0399 67.2258 74.8919 67.7618 74.5959C68.2978 74.2999 68.7338 73.9039 69.0698 73.4079C69.4058 72.9119 69.6538 72.3519 69.8138 71.7279C69.9738 71.1039 70.0538 70.4559 70.0538 69.7839Z" fill="white"/>
<path fill-rule="evenodd" clip-rule="evenodd" d="M54 48C67.2548 48 78 37.2548 78 24C78 10.7452 67.2548 0 54 0C40.7452 0 30 10.7452 30 24C30 37.2548 40.7452 48 54 48ZM54 47.3846C66.915 47.3846 77.3846 36.915 77.3846 24C77.3846 11.085 66.915 0.615385 54 0.615385C41.085 0.615385 30.6154 11.085 30.6154 24C30.6154 36.915 41.085 47.3846 54 47.3846Z" fill="white"/>
<path fill-rule="evenodd" clip-rule="evenodd" d="M71.2859 13.5451L71.1231 13.2869L54.7313 23.6218C54.5088 23.3208 54.1515 23.1256 53.7485 23.1256C53.4013 23.1256 53.0879 23.2705 52.8656 23.5031L44.8689 18.7115L44.555 19.2354L52.5671 24.0362C52.541 24.1354 52.5272 24.2396 52.5272 24.347C52.5272 25.0215 53.074 25.5683 53.7485 25.5683C54.423 25.5683 54.9698 25.0215 54.9698 24.347C54.9698 24.1848 54.9382 24.03 54.8808 23.8884L71.2859 13.5451Z" fill="white"/>
</svg>
