<svg xmlns="http://www.w3.org/2000/svg" viewBox="0 0 106.691 76.456">
  <defs>
    <style>
      .cls-1 {
        fill: #7a1c1c;
      }

      .cls-2 {
        fill: #333;
      }
    </style>
  </defs>
  <g id="LOGO_Copy_2" data-name="LOGO Copy 2" transform="translate(-0.715)">
    <g id="Group">
      <path id="Wiz" class="cls-1" d="M6.264,17.281h-1.8L0,0H1.632L5.352,14.976H5.4L9.408,0h1.824l3.936,14.976h.049L18.984,0h1.68L16.128,17.279h-1.8L10.32,2.016h-.049L6.264,17.28Zm17.055,0h-1.44V4.848h1.44V17.279Zm12.087,0H24.989V16.008l8.257-9.96h-7.7v-1.2h9.552V6.12l-8.256,9.96h8.568v1.2ZM23.391,2.136H21.807V0h1.584V2.135Z" transform="translate(72 59)"/>
      <path id="Chrono" class="cls-2" d="M7.44,18.192a7.409,7.409,0,0,1-3.408-.732,6.5,6.5,0,0,1-2.316-1.98A8.376,8.376,0,0,1,.408,12.588,14.407,14.407,0,0,1,0,9.1,12.761,12.761,0,0,1,.612,4.9,7.531,7.531,0,0,1,2.3,2.076,6.414,6.414,0,0,1,4.848.492,9.991,9.991,0,0,1,8.04,0,8.376,8.376,0,0,1,10.5.348a6.046,6.046,0,0,1,2.016,1.044,5.693,5.693,0,0,1,1.44,1.715,7.26,7.26,0,0,1,.779,2.364H13.056a4.965,4.965,0,0,0-1.872-3.144,6.242,6.242,0,0,0-3.577-.936,5.493,5.493,0,0,0-2.687.624A5.455,5.455,0,0,0,3.06,3.7,7.464,7.464,0,0,0,1.98,6.132a11.876,11.876,0,0,0-.348,2.916,13.28,13.28,0,0,0,.3,2.832,7.573,7.573,0,0,0,1,2.484A5.279,5.279,0,0,0,4.8,16.128a5.881,5.881,0,0,0,2.952.672,5.524,5.524,0,0,0,2.016-.36,5.071,5.071,0,0,0,1.6-1,5.839,5.839,0,0,0,1.152-1.5,7.63,7.63,0,0,0,.707-1.9h1.7a10.972,10.972,0,0,1-.841,2.363,6.746,6.746,0,0,1-1.452,1.957A6.694,6.694,0,0,1,10.452,17.7,8.489,8.489,0,0,1,7.44,18.192Zm57.675-.12a6.508,6.508,0,0,1-2.245-.432,5.05,5.05,0,0,1-1.823-1.224,5.907,5.907,0,0,1-1.237-2.04,8.19,8.19,0,0,1-.455-2.856,8.818,8.818,0,0,1,.36-2.556,6.044,6.044,0,0,1,1.08-2.076,5.149,5.149,0,0,1,1.8-1.4,5.816,5.816,0,0,1,2.52-.516,5.875,5.875,0,0,1,2.543.516,5.21,5.21,0,0,1,1.8,1.392,5.776,5.776,0,0,1,1.068,2.076,9.21,9.21,0,0,1,.348,2.568,8.369,8.369,0,0,1-.409,2.688A6.061,6.061,0,0,1,69.3,16.272,5.164,5.164,0,0,1,67.478,17.6,5.851,5.851,0,0,1,65.115,18.072Zm0-11.808a3.956,3.956,0,0,0-1.932.444,3.8,3.8,0,0,0-1.308,1.176,5.183,5.183,0,0,0-.744,1.68,7.963,7.963,0,0,0-.24,1.956,7.772,7.772,0,0,0,.276,2.124,4.988,4.988,0,0,0,.8,1.668,3.616,3.616,0,0,0,1.32,1.08,4.147,4.147,0,0,0,1.824.384,3.954,3.954,0,0,0,1.931-.444,3.761,3.761,0,0,0,1.309-1.188,5.365,5.365,0,0,0,.743-1.68,7.82,7.82,0,0,0,.24-1.944,8.519,8.519,0,0,0-.24-2.064,4.93,4.93,0,0,0-.743-1.669,3.611,3.611,0,0,0-1.3-1.116A4.233,4.233,0,0,0,65.115,6.264ZM40.557,18.072a6.509,6.509,0,0,1-2.244-.432,5.048,5.048,0,0,1-1.824-1.224,5.881,5.881,0,0,1-1.236-2.04A8.224,8.224,0,0,1,34.8,11.52a8.845,8.845,0,0,1,.36-2.556,6.072,6.072,0,0,1,1.08-2.076,5.149,5.149,0,0,1,1.8-1.4,5.816,5.816,0,0,1,2.52-.516,5.877,5.877,0,0,1,2.544.516,5.239,5.239,0,0,1,1.8,1.392,5.748,5.748,0,0,1,1.067,2.076,9.183,9.183,0,0,1,.348,2.568,8.332,8.332,0,0,1-.408,2.688,6.1,6.1,0,0,1-1.165,2.064A5.146,5.146,0,0,1,42.921,17.6,5.853,5.853,0,0,1,40.557,18.072Zm0-11.808a3.964,3.964,0,0,0-1.932.444,3.8,3.8,0,0,0-1.308,1.176,5.189,5.189,0,0,0-.744,1.68,8.071,8.071,0,0,0-.239,1.956,7.812,7.812,0,0,0,.275,2.124,5,5,0,0,0,.8,1.668,3.626,3.626,0,0,0,1.319,1.08,4.164,4.164,0,0,0,1.824.384,3.964,3.964,0,0,0,1.932-.444A3.757,3.757,0,0,0,43.8,15.144a5.353,5.353,0,0,0,.744-1.68,7.882,7.882,0,0,0,.239-1.944,8.585,8.585,0,0,0-.239-2.064A4.892,4.892,0,0,0,43.8,7.788a3.606,3.606,0,0,0-1.3-1.116A4.217,4.217,0,0,0,40.557,6.264Zm8.775,11.473h-1.44V5.3h1.44V7.032A9.219,9.219,0,0,1,51.12,5.544a4.119,4.119,0,0,1,2.219-.576,5.7,5.7,0,0,1,2.137.4,3.656,3.656,0,0,1,1.656,1.38,3.139,3.139,0,0,1,.54,1.381A12.533,12.533,0,0,1,57.756,9.6v8.135h-1.44V9.624a3.721,3.721,0,0,0-.744-2.52,3.172,3.172,0,0,0-2.471-.84,3.506,3.506,0,0,0-1.224.2,3.835,3.835,0,0,0-1,.54,3.636,3.636,0,0,0-.756.768,3.565,3.565,0,0,0-.48.912,4.648,4.648,0,0,0-.265,1.152c-.032.373-.048.777-.048,1.2v6.7Zm-31.053,0h-1.44V.456h1.44V7.032a9.242,9.242,0,0,1,1.788-1.488,4.1,4.1,0,0,1,2.219-.576,5.7,5.7,0,0,1,2.137.4,3.658,3.658,0,0,1,1.656,1.38,3.139,3.139,0,0,1,.54,1.381A12.355,12.355,0,0,1,26.7,9.6v8.135h-1.44V9.624a3.721,3.721,0,0,0-.744-2.52,3.172,3.172,0,0,0-2.471-.84,3.477,3.477,0,0,0-1.224.2,3.81,3.81,0,0,0-1,.54,3.639,3.639,0,0,0-.756.768,3.57,3.57,0,0,0-.48.912,4.648,4.648,0,0,0-.265,1.152c-.032.381-.048.785-.048,1.2v6.7Zm12.351,0H29.19V5.3h1.44V7.632h.048a4.193,4.193,0,0,1,1.548-2.076,4.743,4.743,0,0,1,2.508-.588v1.56H34.6a4.123,4.123,0,0,0-1.886.385,3.331,3.331,0,0,0-1.26,1.1A4.356,4.356,0,0,0,30.81,9.66a10.556,10.556,0,0,0-.18,1.98v6.1Z" transform="translate(0.715 58.264)"/>
      <g id="Group_2" data-name="Group 2" transform="translate(30)">
        <path id="Combined_Shape" data-name="Combined Shape" class="cls-1" d="M24,48A24,24,0,0,1,7.029,7.029,24,24,0,0,1,40.97,40.97,23.842,23.842,0,0,1,24,48ZM24,.616A23.385,23.385,0,1,0,47.385,24,23.411,23.411,0,0,0,24,.616Z"/>
        <path id="Combined_Shape-2" data-name="Combined Shape" class="cls-1" d="M7.972,11.06a1.219,1.219,0,0,1,.04-.311L0,5.948l.314-.524,8,4.792a1.221,1.221,0,0,1,1.865.119L26.568,0l.163.258L10.325,10.6a1.221,1.221,0,1,1-2.353.459Z" transform="translate(14.555 13.287)"/>
      </g>
      <g id="Group_2_Copy" data-name="Group 2 Copy" transform="translate(30)">
        <g id="Group_2_Copy-2" data-name="Group 2 Copy">
          <path id="Combined_Shape-3" data-name="Combined Shape" class="cls-1" d="M24,48A24,24,0,0,1,7.029,7.029,24,24,0,0,1,40.97,40.97,23.842,23.842,0,0,1,24,48ZM24,.616A23.385,23.385,0,1,0,47.385,24,23.411,23.411,0,0,0,24,.616Z"/>
          <path id="Combined_Shape-4" data-name="Combined Shape" class="cls-1" d="M7.972,11.06a1.219,1.219,0,0,1,.04-.311L0,5.948l.314-.524,8,4.792a1.221,1.221,0,0,1,1.865.119L26.568,0l.163.258L10.325,10.6a1.221,1.221,0,1,1-2.353.459Z" transform="translate(14.555 13.287)"/>
        </g>
      </g>
    </g>
  </g>
</svg>
