<svg width="17" height="28" viewBox="0 0 17 28" fill="none" xmlns="http://www.w3.org/2000/svg">
<g id="paper-bag">
<path id="Shape" fill-rule="evenodd" clip-rule="evenodd" d="M0.459416 4H16.5406C16.7942 4 17 4.20675 17 4.46149V27.5385C17 27.7933 16.7945 28 16.5406 28H0.459416C0.205815 28 0 27.7933 0 27.5385V4.46149C0 4.20675 0.205815 4 0.459416 4ZM0.918832 27.0769H16.081V4.92299H0.918832V27.0769Z" fill="white"/>
<path id="Shape_2" d="M9.00013 0C6.79446 0 5 1.7944 5 4V7.5556C5 7.80091 5.1991 8 5.44442 8C5.68974 8 5.88883 7.80091 5.88883 7.5556V4C5.88883 2.28451 7.28445 0.888932 9 0.888932C10.7156 0.888932 12.1112 2.28451 12.1112 4V7.5556C12.1112 7.80091 12.3103 8 12.5556 8C12.8012 8 13 7.80091 13 7.5556V4C13.0003 1.7944 11.2058 0 9.00013 0Z" fill="white"/>
</g>
</svg>
