<svg width="231" height="239" viewBox="0 0 231 239" fill="none" xmlns="http://www.w3.org/2000/svg">
<path fill-rule="evenodd" clip-rule="evenodd" d="M117.808 148.014C118.47 147.935 119.134 148.183 119.562 148.713C120.053 149.322 120.14 150.165 119.778 150.861L76.4333 235.924C76.119 236.543 75.508 236.949 74.8204 236.996L74.8198 236.996C74.7748 236.998 74.7299 237 74.6868 237C74.0483 237 73.4472 236.687 73.0778 236.155L59.7048 216.917L44.4497 228.68C44.1 228.951 43.6776 229.087 43.2552 229.087C42.9193 229.087 42.5814 229 42.2768 228.824C41.5912 228.428 41.2081 227.655 41.3063 226.864L45.0351 196.831L3.35226 183.078C2.52909 182.805 1.979 182.02 2.00061 181.147C2.02419 180.275 2.61357 179.519 3.45049 179.29L117.368 148.092C117.515 148.048 117.657 148.022 117.808 148.014ZM47.2606 193.078L106.252 154.935L11.165 181.109L47.2606 193.078ZM45.534 223.13L48.2008 201.169L56.9903 214.097L45.534 223.13ZM50.1165 195.789L74.5548 231.221L113.126 154.935L50.1165 195.789Z" fill="black"/>
<path d="M119.562 148.713L120.73 147.771L120.729 147.77L119.562 148.713ZM117.808 148.014L117.886 149.512L117.936 149.51L117.986 149.504L117.808 148.014ZM119.778 150.861L118.447 150.17L118.442 150.18L119.778 150.861ZM76.4333 235.924L75.0969 235.243L75.0958 235.245L76.4333 235.924ZM74.8204 236.996L74.8804 238.495L74.9021 238.494L74.9237 238.492L74.8204 236.996ZM74.8198 236.996L74.7599 235.497L74.7543 235.497L74.8198 236.996ZM73.0778 236.155L74.3101 235.3L74.3095 235.299L73.0778 236.155ZM59.7048 216.917L60.9365 216.061L60.0369 214.767L58.7889 215.729L59.7048 216.917ZM44.4497 228.68L43.5338 227.492L43.5308 227.494L44.4497 228.68ZM42.2768 228.824L43.0277 227.526L43.0265 227.525L42.2768 228.824ZM41.3063 226.864L39.8178 226.679L39.8178 226.679L41.3063 226.864ZM45.0351 196.831L46.5237 197.015L46.6756 195.792L45.5051 195.406L45.0351 196.831ZM3.35226 183.078L2.88009 184.502L2.88228 184.503L3.35226 183.078ZM2.00061 181.147L0.501158 181.107L0.501075 181.11L2.00061 181.147ZM3.45049 179.29L3.05428 177.843L3.05385 177.843L3.45049 179.29ZM117.368 148.092L117.764 149.538L117.778 149.534L117.793 149.53L117.368 148.092ZM106.252 154.935L107.067 156.195L105.854 153.489L106.252 154.935ZM47.2606 193.078L46.7885 194.502L47.4711 194.728L48.075 194.338L47.2606 193.078ZM11.165 181.109L10.767 179.663L5.99722 180.976L10.6929 182.533L11.165 181.109ZM48.2008 201.169L49.4412 200.325L47.1936 197.019L46.7117 200.988L48.2008 201.169ZM45.534 223.13L44.0449 222.949L43.6065 226.56L46.4627 224.308L45.534 223.13ZM56.9903 214.097L57.919 215.275L59.0166 214.41L58.2308 213.254L56.9903 214.097ZM74.5548 231.221L73.3201 232.072L74.7539 234.151L75.8935 231.898L74.5548 231.221ZM50.1165 195.789L49.3005 194.531L48.0054 195.37L48.8817 196.641L50.1165 195.789ZM113.126 154.935L114.465 155.612L116.972 150.654L112.31 153.676L113.126 154.935ZM120.729 147.77C119.957 146.815 118.773 146.388 117.63 146.525L117.986 149.504C118.166 149.482 118.31 149.55 118.395 149.655L120.729 147.77ZM121.11 151.552C121.746 150.325 121.593 148.842 120.73 147.771L118.394 149.654C118.513 149.802 118.533 150.004 118.447 150.17L121.11 151.552ZM77.7698 236.605L121.115 151.542L118.442 150.18L75.0969 235.243L77.7698 236.605ZM74.9237 238.492C76.1413 238.408 77.2191 237.69 77.7709 236.603L75.0958 235.245C75.0189 235.396 74.8747 235.489 74.7171 235.5L74.9237 238.492ZM74.8798 238.495L74.8804 238.495L74.7605 235.497L74.7599 235.497L74.8798 238.495ZM74.6868 238.5C74.7685 238.5 74.847 238.496 74.8854 238.495L74.7543 235.497C74.7304 235.499 74.7159 235.499 74.7029 235.5C74.6906 235.5 74.6862 235.5 74.6868 235.5V238.5ZM71.8455 237.011C72.4948 237.946 73.556 238.5 74.6868 238.5V235.5C74.5406 235.5 74.3995 235.429 74.3101 235.3L71.8455 237.011ZM58.4731 217.773L71.8462 237.011L74.3095 235.299L60.9365 216.061L58.4731 217.773ZM45.3656 229.868L60.6207 218.105L58.7889 215.729L43.5338 227.492L45.3656 229.868ZM43.2552 230.587C43.9995 230.587 44.7475 230.347 45.3685 229.865L43.5308 227.494C43.4525 227.555 43.3558 227.587 43.2552 227.587V230.587ZM41.526 230.123C42.0625 230.433 42.66 230.587 43.2552 230.587V227.587C43.1785 227.587 43.1002 227.567 43.0277 227.526L41.526 230.123ZM39.8178 226.679C39.6459 228.063 40.3148 229.424 41.5272 230.123L43.0265 227.525C42.8676 227.433 42.7703 227.247 42.7949 227.048L39.8178 226.679ZM43.5466 196.646L39.8178 226.679L42.7949 227.049L46.5237 197.015L43.5466 196.646ZM2.88228 184.503L44.5652 198.255L45.5051 195.406L3.82224 181.654L2.88228 184.503ZM0.501075 181.11C0.463242 182.638 1.42543 184.019 2.88009 184.502L3.82442 181.654C3.63275 181.591 3.49477 181.402 3.50015 181.185L0.501075 181.11ZM3.05385 177.843C1.57392 178.249 0.542419 179.58 0.501162 181.107L3.50007 181.188C3.50596 180.97 3.65322 180.79 3.84713 180.736L3.05385 177.843ZM116.972 146.645L3.05428 177.843L3.8467 180.737L117.764 149.538L116.972 146.645ZM117.729 146.517C117.45 146.531 117.192 146.579 116.943 146.653L117.793 149.53C117.838 149.517 117.863 149.514 117.886 149.512L117.729 146.517ZM105.438 153.675L46.4461 191.818L48.075 194.338L107.067 156.195L105.438 153.675ZM11.5631 182.555L106.651 156.381L105.854 153.489L10.767 179.663L11.5631 182.555ZM47.7327 191.654L11.6372 179.685L10.6929 182.533L46.7885 194.502L47.7327 191.654ZM46.7117 200.988L44.0449 222.949L47.023 223.311L49.6898 201.35L46.7117 200.988ZM58.2308 213.254L49.4412 200.325L46.9603 202.012L55.7498 214.941L58.2308 213.254ZM46.4627 224.308L57.919 215.275L56.0616 212.92L44.6053 221.952L46.4627 224.308ZM75.7896 230.369L51.3513 194.938L48.8817 196.641L73.3201 232.072L75.7896 230.369ZM111.788 154.258L73.2162 230.544L75.8935 231.898L114.465 155.612L111.788 154.258ZM50.9326 197.048L113.942 156.194L112.31 153.676L49.3005 194.531L50.9326 197.048Z" fill="white"/>
<path fill-rule="evenodd" clip-rule="evenodd" d="M203.064 78.6316C203.301 78.4045 203.635 78.3057 203.961 78.3883C204.335 78.4836 204.619 78.7908 204.685 79.1726L212.978 125.58C213.039 125.917 212.92 126.258 212.664 126.48L212.664 126.48C212.647 126.495 212.63 126.509 212.613 126.521C212.362 126.71 212.033 126.765 211.73 126.664L200.756 123.024L198.268 132.181C198.211 132.391 198.086 132.57 197.92 132.695C197.788 132.794 197.63 132.86 197.458 132.88C197.071 132.927 196.69 132.735 196.493 132.393L189.021 119.432L168.567 126.333C168.163 126.468 167.713 126.321 167.462 125.97C167.212 125.619 167.218 125.146 167.479 124.808L202.914 78.7922C202.959 78.7314 203.007 78.6794 203.064 78.6316ZM188.779 117.292L200.587 84.7822L171.048 123.244L188.779 117.292ZM197.042 129.669L191.555 120.209L198.852 122.713L197.042 129.669ZM190.706 117.518L210.841 124.279L203.286 82.7489L190.706 117.518Z" fill="black"/>
<path d="M203.961 78.3883L204.084 77.9038L204.084 77.9037L203.961 78.3883ZM203.064 78.6316L203.386 79.0145L203.399 79.0037L203.411 78.9921L203.064 78.6316ZM204.685 79.1726L204.192 79.2569L204.193 79.2606L204.685 79.1726ZM212.978 125.58L212.486 125.668L212.486 125.668L212.978 125.58ZM212.664 126.48L212.981 126.867L212.992 126.858L212.664 126.48ZM212.664 126.48L212.346 126.094L212.346 126.095L212.664 126.48ZM211.73 126.664L211.888 126.189L211.887 126.189L211.73 126.664ZM200.756 123.024L200.914 122.549L200.412 122.383L200.274 122.893L200.756 123.024ZM198.268 132.181L197.785 132.049L197.785 132.051L198.268 132.181ZM197.458 132.88L197.398 132.384L197.398 132.384L197.458 132.88ZM196.493 132.393L196.06 132.643L196.06 132.643L196.493 132.393ZM189.021 119.432L189.455 119.183L189.25 118.828L188.862 118.959L189.021 119.432ZM168.567 126.333L168.726 126.807L168.727 126.806L168.567 126.333ZM167.462 125.97L167.055 126.26L167.056 126.261L167.462 125.97ZM167.479 124.808L167.082 124.503L167.082 124.503L167.479 124.808ZM202.914 78.7922L203.311 79.0973L203.317 79.0893L202.914 78.7922ZM200.587 84.7822L201.057 84.9529L200.191 84.4776L200.587 84.7822ZM188.779 117.292L188.938 117.766L189.166 117.69L189.249 117.463L188.779 117.292ZM171.048 123.244L170.652 122.94L169.653 124.24L171.207 123.718L171.048 123.244ZM191.555 120.209L191.717 119.736L190.45 119.301L191.122 120.46L191.555 120.209ZM197.042 129.669L196.61 129.919L197.22 130.971L197.526 129.795L197.042 129.669ZM198.852 122.713L199.336 122.839L199.452 122.391L199.014 122.241L198.852 122.713ZM210.841 124.279L210.682 124.753L211.485 125.022L211.333 124.189L210.841 124.279ZM190.706 117.518L190.236 117.348L190.062 117.829L190.547 117.992L190.706 117.518ZM203.286 82.7489L203.777 82.6594L203.446 80.8363L202.815 82.5788L203.286 82.7489ZM204.084 77.9037C203.581 77.7763 203.072 77.931 202.718 78.271L203.411 78.9921C203.529 78.878 203.688 78.8351 203.838 78.873L204.084 77.9037ZM205.178 79.0884C205.079 78.5113 204.649 78.0477 204.084 77.9038L203.837 78.8729C204.02 78.9195 204.16 79.0702 204.192 79.2569L205.178 79.0884ZM213.47 125.492L205.177 79.0847L204.193 79.2606L212.486 125.668L213.47 125.492ZM212.992 126.858C213.382 126.519 213.562 126 213.47 125.491L212.486 125.668C212.516 125.835 212.457 125.998 212.336 126.103L212.992 126.858ZM212.981 126.867L212.981 126.867L212.347 126.094L212.346 126.094L212.981 126.867ZM212.914 126.921C212.941 126.9 212.967 126.879 212.982 126.866L212.346 126.095C212.327 126.11 212.318 126.117 212.312 126.122L212.914 126.921ZM211.572 127.138C212.03 127.291 212.531 127.209 212.914 126.921L212.312 126.122C212.193 126.211 212.036 126.239 211.888 126.189L211.572 127.138ZM200.599 123.498L211.572 127.138L211.887 126.189L200.914 122.549L200.599 123.498ZM198.75 132.312L201.239 123.155L200.274 122.893L197.785 132.049L198.75 132.312ZM198.221 133.094C198.473 132.904 198.664 132.632 198.75 132.311L197.785 132.051C197.758 132.15 197.699 132.236 197.619 132.295L198.221 133.094ZM197.517 133.377C197.778 133.346 198.02 133.246 198.221 133.094L197.619 132.295C197.557 132.343 197.481 132.374 197.398 132.384L197.517 133.377ZM196.06 132.643C196.356 133.156 196.929 133.448 197.517 133.377L197.398 132.384C197.213 132.406 197.025 132.314 196.927 132.144L196.06 132.643ZM188.588 119.682L196.06 132.643L196.927 132.144L189.455 119.183L188.588 119.682ZM168.727 126.806L189.181 119.906L188.862 118.959L168.407 125.859L168.727 126.806ZM167.056 126.261C167.433 126.788 168.11 127.013 168.726 126.807L168.408 125.859C168.215 125.923 167.994 125.854 167.869 125.679L167.056 126.261ZM167.082 124.503C166.686 125.018 166.679 125.733 167.055 126.26L167.869 125.68C167.745 125.505 167.751 125.274 167.875 125.113L167.082 124.503ZM202.518 78.4871L167.082 124.503L167.875 125.113L203.311 79.0973L202.518 78.4871ZM202.743 78.2486C202.653 78.3241 202.578 78.4056 202.512 78.4951L203.317 79.0893C203.34 79.0572 203.362 79.0348 203.386 79.0145L202.743 78.2486ZM200.117 84.6115L188.309 117.122L189.249 117.463L201.057 84.9529L200.117 84.6115ZM171.445 123.549L200.984 85.0867L200.191 84.4776L170.652 122.94L171.445 123.549ZM188.619 116.818L170.889 122.77L171.207 123.718L188.938 117.766L188.619 116.818ZM191.122 120.46L196.61 129.919L197.475 129.418L191.987 119.958L191.122 120.46ZM199.014 122.241L191.717 119.736L191.393 120.682L198.689 123.186L199.014 122.241ZM197.526 129.795L199.336 122.839L198.368 122.588L196.558 129.543L197.526 129.795ZM211.001 123.805L190.865 117.044L190.547 117.992L210.682 124.753L211.001 123.805ZM202.794 82.8384L210.349 124.368L211.333 124.189L203.777 82.6594L202.794 82.8384ZM191.176 117.688L203.756 82.919L202.815 82.5788L190.236 117.348L191.176 117.688Z" fill="white"/>
<path fill-rule="evenodd" clip-rule="evenodd" d="M121.6 1.10158C121.352 1.02179 121.079 1.06785 120.876 1.24065C120.642 1.43932 120.546 1.75821 120.632 2.0539L130.836 38.1151C130.91 38.3775 131.113 38.5795 131.373 38.649C131.39 38.6531 131.407 38.6572 131.423 38.6604C131.668 38.7079 131.921 38.632 132.102 38.454L138.663 32.0222L143.618 37.6976C143.732 37.8283 143.883 37.9124 144.045 37.9438C144.174 37.9688 144.309 37.9603 144.439 37.915C144.731 37.8133 144.936 37.5432 144.958 37.2304L145.784 25.3593L162.767 23.1509C163.102 23.1067 163.372 22.8445 163.429 22.5061C163.485 22.1676 163.317 21.832 163.014 21.6812L121.762 1.16409C121.709 1.13633 121.657 1.11588 121.6 1.10158ZM145.214 23.7451L125.502 4.63268L159.925 21.8096L145.214 23.7451ZM143.62 35.4746L144.247 26.7985L139.914 31.1356L143.62 35.4746ZM143.918 24.5793L131.907 36.4393L122.872 4.12139L143.918 24.5793Z" fill="black"/>
<path d="M120.876 1.24065L120.552 0.859726L120.552 0.859386L120.876 1.24065ZM121.6 1.10158L121.478 1.58668L121.462 1.58261L121.446 1.57744L121.6 1.10158ZM120.632 2.0539L121.112 1.91415L121.113 1.91777L120.632 2.0539ZM130.836 38.1151L131.317 37.9789L131.317 37.9797L130.836 38.1151ZM131.373 38.649L131.255 39.1352L131.243 39.132L131.373 38.649ZM132.102 38.454L131.752 38.0972L131.752 38.097L132.102 38.454ZM138.663 32.0222L138.313 31.6652L138.692 31.2944L139.04 31.6934L138.663 32.0222ZM143.618 37.6976L143.995 37.3688L143.996 37.3697L143.618 37.6976ZM144.439 37.915L144.274 37.443L144.275 37.4428L144.439 37.915ZM144.958 37.2304L145.456 37.2651L145.456 37.2652L144.958 37.2304ZM145.784 25.3593L145.285 25.3245L145.314 24.9162L145.72 24.8635L145.784 25.3593ZM162.767 23.1509L162.832 23.6466L162.831 23.6467L162.767 23.1509ZM163.429 22.5061L163.922 22.5883L163.922 22.5894L163.429 22.5061ZM163.014 21.6812L163.236 21.2335L163.236 21.2336L163.014 21.6812ZM121.762 1.16409L121.539 1.61187L121.531 1.60723L121.762 1.16409ZM125.502 4.63268L125.154 4.99166L125.725 4.18529L125.502 4.63268ZM145.214 23.7451L145.279 24.2408L145.04 24.2724L144.866 24.1041L145.214 23.7451ZM159.925 21.8096L160.148 21.3622L161.611 22.0921L159.99 22.3053L159.925 21.8096ZM144.247 26.7985L143.894 26.4451L144.843 25.4951L144.746 26.8346L144.247 26.7985ZM143.62 35.4746L144.119 35.5106L144.031 36.7254L143.24 35.7993L143.62 35.4746ZM139.914 31.1356L139.534 31.4604L139.233 31.109L139.56 30.7822L139.914 31.1356ZM131.907 36.4393L132.259 36.795L131.655 37.3917L131.426 36.5739L131.907 36.4393ZM143.918 24.5793L144.266 24.2208L144.632 24.5765L144.269 24.9351L143.918 24.5793ZM122.872 4.12139L122.39 4.25602L121.891 2.47086L123.22 3.76286L122.872 4.12139ZM120.552 0.859386C120.895 0.56876 121.35 0.495686 121.753 0.625713L121.446 1.57744C121.354 1.54788 121.264 1.56694 121.199 1.62191L120.552 0.859386ZM120.152 2.19366C120.011 1.70842 120.168 1.18578 120.552 0.859726L121.2 1.62157C121.116 1.69287 121.081 1.808 121.112 1.91415L120.152 2.19366ZM130.355 38.2512L120.151 2.19004L121.113 1.91777L131.317 37.9789L130.355 38.2512ZM131.243 39.132C130.811 39.0162 130.475 38.6802 130.354 38.2505L131.317 37.9797C131.344 38.0748 131.415 38.1428 131.502 38.166L131.243 39.132ZM131.328 39.1512C131.299 39.1455 131.271 39.1387 131.256 39.1351L131.489 38.1628C131.509 38.1675 131.515 38.1689 131.519 38.1696L131.328 39.1512ZM132.453 38.8108C132.155 39.1031 131.735 39.2304 131.328 39.1512L131.519 38.1696C131.6 38.1854 131.687 38.1609 131.752 38.0972L132.453 38.8108ZM139.013 32.3793L132.452 38.8111L131.752 38.097L138.313 31.6652L139.013 32.3793ZM143.242 38.0265L138.287 32.3511L139.04 31.6934L143.995 37.3688L143.242 38.0265ZM143.95 38.4346C143.682 38.3825 143.43 38.2428 143.241 38.0255L143.996 37.3697C144.034 37.4137 144.085 37.4422 144.14 37.453L143.95 38.4346ZM144.604 38.387C144.389 38.462 144.164 38.4762 143.95 38.4346L144.14 37.453C144.183 37.4613 144.229 37.4587 144.274 37.443L144.604 38.387ZM145.456 37.2652C145.421 37.774 145.088 38.2185 144.604 38.3872L144.275 37.4428C144.375 37.408 144.451 37.3123 144.459 37.1957L145.456 37.2652ZM146.283 25.394L145.456 37.2651L144.459 37.1957L145.285 25.3245L146.283 25.394ZM162.831 23.6467L145.849 25.8551L145.72 24.8635L162.702 22.6551L162.831 23.6467ZM163.922 22.5894C163.829 23.1402 163.389 23.5733 162.832 23.6466L162.702 22.6552C162.815 22.6402 162.915 22.5487 162.936 22.4228L163.922 22.5894ZM163.236 21.2336C163.74 21.4844 164.014 22.0374 163.922 22.5883L162.936 22.4239C162.957 22.2977 162.893 22.1797 162.791 22.1288L163.236 21.2336ZM121.985 0.71641L163.236 21.2335L162.791 22.1289L121.539 1.61178L121.985 0.71641ZM121.721 0.616474C121.82 0.64122 121.909 0.676623 121.994 0.720962L121.531 1.60723C121.509 1.59604 121.494 1.59055 121.478 1.58668L121.721 0.616474ZM125.85 4.27371L145.562 23.3861L144.866 24.1041L125.154 4.99166L125.85 4.27371ZM159.702 22.257L125.279 5.08008L125.725 4.18529L160.148 21.3622L159.702 22.257ZM145.149 23.2494L159.86 21.3139L159.99 22.3053L145.279 24.2408L145.149 23.2494ZM144.746 26.8346L144.119 35.5106L143.121 35.4385L143.749 26.7625L144.746 26.8346ZM139.56 30.7822L143.894 26.4451L144.601 27.1519L140.267 31.489L139.56 30.7822ZM143.24 35.7993L139.534 31.4604L140.294 30.8109L144 35.1498L143.24 35.7993ZM131.556 36.0835L143.567 24.2235L144.269 24.9351L132.259 36.795L131.556 36.0835ZM123.353 3.98676L132.389 36.3046L131.426 36.5739L122.39 4.25602L123.353 3.98676ZM143.569 24.9378L122.523 4.47992L123.22 3.76286L144.266 24.2208L143.569 24.9378Z" fill="white"/>
</svg>
