<svg width="24" height="30" viewBox="0 0 24 30" fill="none" xmlns="http://www.w3.org/2000/svg">
<path fill-rule="evenodd" clip-rule="evenodd" d="M22.6935 5.81918L23.0865 6.21219C23.3199 6.44565 23.3668 6.73416 23.3668 7.12513V19.8798V28.3094V28.5454C23.3668 28.972 22.9376 29.388 22.4299 29.519C22.4255 29.5201 22.4211 29.5214 22.4168 29.5227C22.4112 29.5243 22.4057 29.526 22.4002 29.5277L22.4002 29.5277L22.4002 29.5277C22.3904 29.5308 22.3805 29.5339 22.3704 29.5365C22.3649 29.538 22.3592 29.5393 22.3535 29.5404C22.274 29.5562 22.1929 29.5648 22.1113 29.5648H1.68408C1.60252 29.5648 1.52147 29.5562 1.44195 29.5404C1.42587 29.5373 1.41054 29.5325 1.39527 29.5277L1.39522 29.5277C1.38535 29.5246 1.3755 29.5216 1.36549 29.519C0.857789 29.388 0.428589 28.972 0.428589 28.5454V28.3094V19.8798V1.4915C0.428589 0.466921 1.07953 0 1.68408 0H16.4777C16.73 0 16.9767 0.102457 17.1546 0.280356L17.5477 0.673365L22.6935 5.81918ZM17.25 6.11686H21.5496L17.25 1.81722V6.11686ZM1.68407 28.5454C1.65093 28.5454 1.62078 28.5343 1.59128 28.5234L1.58314 28.5204C1.50362 28.4827 1.44806 28.4032 1.44806 28.3094V20.8993H22.3473V28.3094C22.3473 28.4032 22.2918 28.4822 22.2123 28.5204L22.2041 28.5234C22.1746 28.5343 22.1445 28.5454 22.1113 28.5454H1.68407ZM1.44806 1.4915V19.8798H22.3473V7.12513C22.3473 7.1213 22.3472 7.11863 22.3471 7.11595C22.347 7.11328 22.3468 7.1106 22.3468 7.10678C22.2826 7.1236 22.2169 7.13634 22.148 7.13634H16.2305V1.21879C16.2305 1.14997 16.2432 1.0837 16.26 1.01948H1.68407C1.46488 1.01948 1.44806 1.38088 1.44806 1.4915Z" fill="#212121"/>
<path fill-rule="evenodd" clip-rule="evenodd" d="M7.77598 22.4943C7.98956 22.5636 8.18122 22.6686 8.35097 22.8078C8.52071 22.9474 8.65834 23.1151 8.76283 23.3129C8.86733 23.5107 8.91983 23.7324 8.91983 23.9786C8.91983 24.2391 8.87549 24.4746 8.7873 24.6861C8.69861 24.8977 8.57576 25.0756 8.41774 25.2193C8.25972 25.3631 8.06908 25.4747 7.84632 25.5537C7.62357 25.6327 7.37685 25.672 7.10771 25.672H6.48736V27.5259H5.65088V22.3898H7.1281C7.34627 22.3898 7.5624 22.4244 7.77598 22.4943ZM7.83205 24.8355C7.91564 24.7565 7.98242 24.6464 8.0339 24.5047C8.08488 24.363 8.11036 24.1876 8.11036 23.9781C8.11036 23.8945 8.09864 23.7982 8.0757 23.6891C8.05225 23.58 8.00485 23.4755 7.93297 23.3756C7.86059 23.2757 7.75966 23.1921 7.62968 23.1248C7.49919 23.0575 7.3274 23.0239 7.11382 23.0239H6.48685V25.0588H7.25349C7.35544 25.0588 7.45688 25.0409 7.55679 25.0063C7.6567 24.9716 7.74845 24.9145 7.83205 24.8355Z" fill="#212121"/>
<path fill-rule="evenodd" clip-rule="evenodd" d="M12.5879 22.5952C12.9157 22.7318 13.1874 22.9148 13.4035 23.1421C13.6196 23.37 13.7807 23.6289 13.8883 23.9185C13.9948 24.2085 14.0483 24.5072 14.0483 24.8141C14.0483 25.2367 14.003 25.5981 13.9122 25.8978C13.8215 26.1975 13.7068 26.4483 13.5671 26.6507C13.4275 26.853 13.271 27.0121 13.0967 27.1283C12.9223 27.2445 12.7541 27.3317 12.5915 27.3898C12.4289 27.4484 12.2801 27.4851 12.1455 27.5014C12.0104 27.5177 11.9105 27.5259 11.8458 27.5259H9.90161V22.3898H11.4487C11.8804 22.3898 12.2602 22.4586 12.5879 22.5952ZM11.5674 26.9122C12.1343 26.9122 12.5431 26.7312 12.7939 26.3688C13.0447 26.0069 13.1701 25.4813 13.1701 24.7937C13.1701 24.5801 13.1446 24.3686 13.0936 24.1596C13.0421 23.9506 12.9437 23.7615 12.7974 23.5917C12.6512 23.422 12.4524 23.2849 12.2016 23.1804C11.9508 23.0759 11.6256 23.0234 11.2259 23.0234H10.7381V26.9122H11.5674Z" fill="#212121"/>
<path d="M15.261 27.5259H16.1112V25.2122H18.2577V24.6408H16.1112V23.0239H18.4734V22.3898H15.261V27.5259Z" fill="#212121"/>
<path fill-rule="evenodd" clip-rule="evenodd" d="M16.7035 11.7041C16.2351 11.7041 15.6601 11.7653 14.9918 11.8866C14.059 10.8967 13.0854 9.45107 12.3983 8.03196C13.0748 5.18391 12.7438 4.76254 12.5918 4.56901L12.5884 4.56471C12.5724 4.54433 12.5558 4.52268 12.5385 4.50021L12.5383 4.5L12.5383 4.49997L12.5382 4.4999C12.3827 4.2977 12.1767 4.03 11.9456 4.03C11.8381 4.03 11.5445 4.07893 11.4277 4.11767C11.1341 4.21554 10.9761 4.44187 10.8497 4.73701C10.4893 5.5796 10.9838 7.01605 11.4925 8.1232C11.0577 9.85274 10.3282 11.9228 9.56159 13.6029C7.62968 14.4878 6.60358 15.3569 6.5108 16.1862C6.47716 16.488 6.54852 16.931 7.07916 17.3291C7.22444 17.4377 7.39469 17.4953 7.57208 17.4953C8.0181 17.4953 8.46871 17.1537 8.99017 16.4212C9.37044 15.887 9.77874 15.1586 10.2049 14.2543C11.57 13.6574 13.2587 13.1181 14.7049 12.8159C15.5102 13.5891 16.2315 13.9806 16.8514 13.9806C17.3081 13.9806 17.6996 13.7706 17.983 13.3735C18.2781 12.9601 18.3454 12.59 18.1818 12.2725C17.9855 11.8907 17.5018 11.7041 16.7035 11.7041ZM7.58329 16.6348C7.34492 16.452 7.35847 16.3287 7.36358 16.2822L7.36359 16.2821C7.3952 15.9987 7.83918 15.4956 8.92849 14.8834C8.10271 16.4085 7.65924 16.6109 7.58329 16.6348ZM11.7632 4.95059C11.7851 4.94345 12.2958 5.51181 11.8121 6.58991C11.0852 5.8462 11.7132 4.96741 11.7632 4.95059ZM10.7095 13.1197C11.2269 11.8866 11.7081 10.5251 12.0726 9.264C12.645 10.2926 13.3326 11.2907 14.0208 12.09C12.933 12.3454 11.7749 12.7058 10.7095 13.1197ZM16.6689 13.1003C16.7882 13.1003 17.1287 13.0952 17.2857 12.8755C17.3616 12.769 17.3912 12.7007 17.4024 12.6645C17.3978 12.662 17.3931 12.6594 17.3882 12.6566C17.3256 12.6214 17.2235 12.564 16.8035 12.564C16.546 12.564 16.2229 12.5753 15.8803 12.6191C15.9859 12.7004 16.0713 12.7714 16.1443 12.8322C16.3583 13.0104 16.4663 13.1003 16.6689 13.1003Z" fill="#212121"/>
</svg>
