<svg width="24" height="25" viewBox="0 0 24 25" fill="none" xmlns="http://www.w3.org/2000/svg">
<path fill-rule="evenodd" clip-rule="evenodd" d="M16.8889 16.5323L23.6999 23.6645C23.875 23.8482 23.8695 24.1403 23.6871 24.3171C23.5982 24.4029 23.484 24.4458 23.3694 24.4458C23.2489 24.4458 23.1288 24.3988 23.0389 24.3042L16.2114 17.1545C14.5447 18.546 12.4064 19.3846 10.0765 19.3846C4.76848 19.3846 0.450562 15.0369 0.450562 9.69231C0.450562 4.34769 4.76848 0 10.0765 0C15.3845 0 19.7024 4.34769 19.7024 9.69231C19.7024 12.3595 18.6261 14.778 16.8889 16.5323ZM1.36732 9.69231C1.36732 14.5278 5.27407 18.4615 10.0765 18.4615C14.8784 18.4615 18.7857 14.5278 18.7857 9.69231C18.7857 4.85677 14.8789 0.923077 10.0765 0.923077C5.27407 0.923077 1.36732 4.85677 1.36732 9.69231Z" fill="white"/>
</svg>
