<svg width="146" height="30" viewBox="0 0 146 30" fill="none" xmlns="http://www.w3.org/2000/svg">
<path fill-rule="evenodd" clip-rule="evenodd" d="M15 30C23.2843 30 30 23.2843 30 15C30 6.71573 23.2843 0 15 0C6.71573 0 0 6.71573 0 15C0 23.2843 6.71573 30 15 30ZM15 29.6154C23.0719 29.6154 29.6154 23.0719 29.6154 15C29.6154 6.92815 23.0719 0.384616 15 0.384616C6.92816 0.384616 0.384631 6.92815 0.384631 15C0.384631 23.0719 6.92816 29.6154 15 29.6154Z" fill="#7A1C1C"/>
<path fill-rule="evenodd" clip-rule="evenodd" d="M22.3058 4.33562L22.1459 4.22873L15.3879 14.3356C15.274 14.269 15.1415 14.2308 15 14.2308C14.7958 14.2308 14.6102 14.3103 14.4725 14.4402L9.28381 11.8044L9.10962 12.1473L14.2667 14.767C14.2434 14.8405 14.2308 14.9188 14.2308 15C14.2308 15.4248 14.5752 15.7692 15 15.7692C15.4249 15.7692 15.7693 15.4248 15.7693 15C15.7693 14.786 15.6819 14.5924 15.5408 14.4529L22.3058 4.33562Z" fill="#7A1C1C"/>
<path fill-rule="evenodd" clip-rule="evenodd" d="M125.27 21.696H125.318L129.086 6.72H130.766L126.23 24H124.43L120.422 8.736H120.374L116.366 24H114.566L110.102 6.72H111.734L115.454 21.696H115.502L119.51 6.72H121.334L125.27 21.696ZM131.981 24V11.568H133.421V24H131.981ZM131.909 8.856V6.72H133.493V8.856H131.909ZM135.092 24V22.728L143.348 12.768H135.644V11.568H145.196V12.84L136.94 22.8H145.508V24H135.092Z" fill="#7A1C1C"/>
<path fill-rule="evenodd" clip-rule="evenodd" d="M51.7712 11.736C51.4352 10.264 50.8112 9.21601 49.8992 8.59201C48.9872 7.968 47.7952 7.65601 46.3232 7.65601C45.2832 7.65601 44.3872 7.86401 43.6352 8.28001C42.8832 8.69601 42.2632 9.256 41.7752 9.96001C41.2872 10.664 40.9272 11.476 40.6952 12.396C40.4632 13.316 40.3472 14.288 40.3472 15.312C40.3472 16.272 40.4472 17.216 40.6472 18.144C40.8472 19.072 41.1792 19.9 41.6432 20.628C42.1072 21.356 42.7312 21.944 43.5152 22.392C44.2992 22.84 45.2832 23.064 46.4672 23.064C47.2032 23.064 47.8752 22.944 48.4832 22.704C49.0912 22.464 49.6232 22.132 50.0792 21.708C50.5352 21.284 50.9192 20.784 51.2312 20.208C51.5432 19.632 51.7792 19 51.9392 18.312H53.6432C53.4512 19.144 53.1712 19.932 52.8032 20.676C52.4352 21.42 51.9512 22.072 51.3512 22.632C50.7512 23.192 50.0232 23.636 49.1672 23.964C48.3112 24.292 47.3072 24.456 46.1552 24.456C44.8272 24.456 43.6912 24.212 42.7472 23.724C41.8032 23.236 41.0312 22.576 40.4312 21.744C39.8312 20.912 39.3952 19.948 39.1232 18.852C38.8512 17.756 38.7152 16.592 38.7152 15.36C38.7152 13.712 38.9192 12.312 39.3272 11.16C39.7352 10.008 40.2992 9.06801 41.0192 8.34001C41.7392 7.612 42.5872 7.08401 43.5632 6.75601C44.5392 6.42801 45.6032 6.26401 46.7552 6.26401C47.6352 6.26401 48.4552 6.38001 49.2152 6.61201C49.9752 6.84401 50.6472 7.19201 51.2312 7.65601C51.8152 8.12001 52.2952 8.692 52.6712 9.37201C53.0472 10.052 53.3072 10.84 53.4512 11.736H51.7712ZM55.5541 24V6.72001H56.9941V13.296C57.5701 12.688 58.1661 12.192 58.7821 11.808C59.3981 11.424 60.1381 11.232 61.0021 11.232C61.7701 11.232 62.4821 11.364 63.1381 11.628C63.7941 11.892 64.3461 12.352 64.7941 13.008C65.0981 13.456 65.2781 13.916 65.3341 14.388C65.3901 14.86 65.4181 15.352 65.4181 15.864V24H63.9781V15.888C63.9781 14.768 63.7301 13.928 63.2341 13.368C62.7381 12.808 61.9141 12.528 60.7621 12.528C60.3141 12.528 59.9061 12.596 59.5381 12.732C59.1701 12.868 58.8381 13.048 58.5421 13.272C58.2461 13.496 57.9941 13.752 57.7861 14.04C57.5781 14.328 57.4181 14.632 57.3061 14.952C57.1621 15.352 57.0741 15.736 57.0421 16.104C57.0101 16.472 56.9941 16.872 56.9941 17.304V24H55.5541ZM69.345 24H67.905V11.568H69.345V13.896H69.393C69.793 12.904 70.309 12.212 70.941 11.82C71.573 11.428 72.409 11.232 73.449 11.232V12.792C72.633 12.776 71.961 12.904 71.433 13.176C70.905 13.448 70.485 13.816 70.173 14.28C69.861 14.744 69.645 15.292 69.525 15.924C69.405 16.556 69.345 17.216 69.345 17.904V24ZM79.2719 24.336C78.4719 24.32 77.7239 24.176 77.0279 23.904C76.3319 23.632 75.7239 23.224 75.2039 22.68C74.6839 22.136 74.2719 21.456 73.9679 20.64C73.6639 19.824 73.5119 18.872 73.5119 17.784C73.5119 16.872 73.6319 16.02 73.8719 15.228C74.1119 14.436 74.4719 13.744 74.9519 13.152C75.4319 12.56 76.0319 12.092 76.7519 11.748C77.4719 11.404 78.3119 11.232 79.2719 11.232C80.2479 11.232 81.0959 11.404 81.8159 11.748C82.5359 12.092 83.1359 12.556 83.6159 13.14C84.0959 13.724 84.4519 14.416 84.6839 15.216C84.9159 16.016 85.0319 16.872 85.0319 17.784C85.0319 18.776 84.8959 19.672 84.6239 20.472C84.3519 21.272 83.9639 21.96 83.4599 22.536C82.9559 23.112 82.3479 23.556 81.6359 23.868C80.9239 24.18 80.1359 24.336 79.2719 24.336ZM83.4959 17.784C83.4959 17.048 83.4159 16.36 83.2559 15.72C83.0959 15.08 82.8479 14.524 82.5119 14.052C82.1759 13.58 81.7439 13.208 81.2159 12.936C80.6879 12.664 80.0399 12.528 79.2719 12.528C78.5199 12.528 77.8759 12.676 77.3399 12.972C76.8039 13.268 76.3679 13.66 76.0319 14.148C75.6959 14.636 75.4479 15.196 75.2879 15.828C75.1279 16.46 75.0479 17.112 75.0479 17.784C75.0479 18.552 75.1399 19.26 75.3239 19.908C75.5079 20.556 75.7759 21.112 76.1279 21.576C76.4799 22.04 76.9199 22.4 77.4479 22.656C77.9759 22.912 78.5839 23.04 79.2719 23.04C80.0239 23.04 80.6679 22.892 81.2039 22.596C81.7399 22.3 82.1759 21.904 82.5119 21.408C82.8479 20.912 83.0959 20.352 83.2559 19.728C83.4159 19.104 83.4959 18.456 83.4959 17.784ZM88.0469 24H86.6069V11.568H88.0469V13.296C88.6229 12.688 89.2189 12.192 89.8349 11.808C90.4509 11.424 91.1909 11.232 92.0549 11.232C92.8229 11.232 93.5349 11.364 94.1909 11.628C94.8469 11.892 95.3989 12.352 95.8469 13.008C96.1509 13.456 96.3309 13.916 96.3869 14.388C96.4429 14.86 96.4709 15.352 96.4709 15.864V24H95.0309V15.888C95.0309 14.768 94.7829 13.928 94.2869 13.368C93.7909 12.808 92.9669 12.528 91.8149 12.528C91.3669 12.528 90.9589 12.596 90.5909 12.732C90.2229 12.868 89.8909 13.048 89.5949 13.272C89.2989 13.496 89.0469 13.752 88.8389 14.04C88.6309 14.328 88.4709 14.632 88.3589 14.952C88.2149 15.352 88.1269 15.736 88.0949 16.104C88.0629 16.472 88.0469 16.872 88.0469 17.304V24ZM103.83 24.336C103.03 24.32 102.282 24.176 101.586 23.904C100.89 23.632 100.282 23.224 99.7618 22.68C99.2418 22.136 98.8298 21.456 98.5258 20.64C98.2218 19.824 98.0698 18.872 98.0698 17.784C98.0698 16.872 98.1898 16.02 98.4298 15.228C98.6698 14.436 99.0298 13.744 99.5098 13.152C99.9898 12.56 100.59 12.092 101.31 11.748C102.03 11.404 102.87 11.232 103.83 11.232C104.806 11.232 105.654 11.404 106.374 11.748C107.094 12.092 107.694 12.556 108.174 13.14C108.654 13.724 109.01 14.416 109.242 15.216C109.474 16.016 109.59 16.872 109.59 17.784C109.59 18.776 109.454 19.672 109.182 20.472C108.91 21.272 108.522 21.96 108.018 22.536C107.514 23.112 106.906 23.556 106.194 23.868C105.482 24.18 104.694 24.336 103.83 24.336ZM108.054 17.784C108.054 17.048 107.974 16.36 107.814 15.72C107.654 15.08 107.406 14.524 107.07 14.052C106.734 13.58 106.302 13.208 105.774 12.936C105.246 12.664 104.598 12.528 103.83 12.528C103.078 12.528 102.434 12.676 101.898 12.972C101.362 13.268 100.926 13.66 100.59 14.148C100.254 14.636 100.006 15.196 99.8458 15.828C99.6858 16.46 99.6058 17.112 99.6058 17.784C99.6058 18.552 99.6978 19.26 99.8818 19.908C100.066 20.556 100.334 21.112 100.686 21.576C101.038 22.04 101.478 22.4 102.006 22.656C102.534 22.912 103.142 23.04 103.83 23.04C104.582 23.04 105.226 22.892 105.762 22.596C106.298 22.3 106.734 21.904 107.07 21.408C107.406 20.912 107.654 20.352 107.814 19.728C107.974 19.104 108.054 18.456 108.054 17.784Z" fill="#333333"/>
</svg>
