<svg width="108" height="19" viewBox="0 0 108 19" fill="none" xmlns="http://www.w3.org/2000/svg">
<path fill-rule="evenodd" clip-rule="evenodd" d="M87.2697 15.696H87.3177L91.0857 0.720001H92.7657L88.2297 18H86.4297L82.4217 2.736H82.3737L78.3657 18H76.5657L72.1017 0.720001H73.7337L77.4537 15.696H77.5017L81.5097 0.720001H83.3337L87.2697 15.696ZM93.9806 18V5.568H95.4206V18H93.9806ZM93.9086 2.856V0.720001H95.4926V2.856H93.9086ZM97.0915 18V16.728L105.348 6.768H97.6435V5.568H107.196V6.84L98.9395 16.8H107.508V18H97.0915Z" fill="#7A1C1C"/>
<path fill-rule="evenodd" clip-rule="evenodd" d="M13.7712 5.73601C13.4352 4.264 12.8112 3.21601 11.8992 2.59201C10.9872 1.968 9.79522 1.65601 8.32321 1.65601C7.2832 1.65601 6.38721 1.86401 5.63521 2.28001C4.88321 2.69601 4.26321 3.256 3.77521 3.96001C3.28721 4.66401 2.92721 5.476 2.69521 6.39601C2.46321 7.31601 2.34721 8.288 2.34721 9.31201C2.34721 10.272 2.44721 11.216 2.64721 12.144C2.84721 13.072 3.17921 13.9 3.64321 14.628C4.10721 15.356 4.73121 15.944 5.51521 16.392C6.29921 16.84 7.2832 17.064 8.46721 17.064C9.20321 17.064 9.87521 16.944 10.4832 16.704C11.0912 16.464 11.6232 16.132 12.0792 15.708C12.5352 15.284 12.9192 14.784 13.2312 14.208C13.5432 13.632 13.7792 13 13.9392 12.312H15.6432C15.4512 13.144 15.1712 13.932 14.8032 14.676C14.4352 15.42 13.9512 16.072 13.3512 16.632C12.7512 17.192 12.0232 17.636 11.1672 17.964C10.3112 18.292 9.30722 18.456 8.15521 18.456C6.8272 18.456 5.69121 18.212 4.74721 17.724C3.80321 17.236 3.03121 16.576 2.43121 15.744C1.83121 14.912 1.39521 13.948 1.12321 12.852C0.851209 11.756 0.71521 10.592 0.71521 9.36001C0.71521 7.712 0.919208 6.31201 1.32721 5.16001C1.73521 4.008 2.29921 3.06801 3.01921 2.34001C3.73921 1.612 4.58721 1.08401 5.56321 0.756008C6.53922 0.428006 7.6032 0.264008 8.75521 0.264008C9.63521 0.264008 10.4552 0.380006 11.2152 0.612008C11.9752 0.844009 12.6472 1.19201 13.2312 1.65601C13.8152 2.12001 14.2952 2.692 14.6712 3.37201C15.0472 4.05201 15.3072 4.84 15.4512 5.73601H13.7712ZM17.5541 18V0.720008H18.9941V7.29601C19.5701 6.688 20.1661 6.19201 20.7821 5.80801C21.3981 5.42401 22.1381 5.23201 23.0021 5.23201C23.7701 5.23201 24.4821 5.36401 25.1381 5.62801C25.7941 5.89201 26.3461 6.352 26.7941 7.00801C27.0981 7.45601 27.2781 7.91601 27.3341 8.38801C27.3901 8.86001 27.4181 9.35201 27.4181 9.86401V18H25.9781V9.88801C25.9781 8.768 25.7301 7.92801 25.2341 7.36801C24.7381 6.808 23.9141 6.52801 22.7621 6.52801C22.3141 6.52801 21.9061 6.59601 21.5381 6.73201C21.1701 6.86801 20.8381 7.04801 20.5421 7.27201C20.2461 7.49601 19.9941 7.75201 19.7861 8.04001C19.5781 8.32801 19.4181 8.63201 19.3061 8.95201C19.1621 9.35201 19.0741 9.73601 19.0421 10.104C19.0101 10.472 18.9941 10.872 18.9941 11.304V18H17.5541ZM31.345 18H29.905V5.56801H31.345V7.89601H31.393C31.793 6.904 32.309 6.21201 32.941 5.82001C33.573 5.42801 34.409 5.23201 35.449 5.23201V6.79201C34.633 6.77601 33.961 6.90401 33.433 7.17601C32.905 7.44801 32.485 7.81601 32.173 8.28001C31.861 8.74401 31.645 9.292 31.525 9.92401C31.405 10.556 31.345 11.216 31.345 11.904V18ZM41.2719 18.336C40.4719 18.32 39.7239 18.176 39.0279 17.904C38.3319 17.632 37.7239 17.224 37.2039 16.68C36.6839 16.136 36.2719 15.456 35.9679 14.64C35.6639 13.824 35.5119 12.872 35.5119 11.784C35.5119 10.872 35.6319 10.02 35.8719 9.22801C36.1119 8.436 36.4719 7.74401 36.9519 7.15201C37.4319 6.56 38.0319 6.09201 38.7519 5.74801C39.4719 5.40401 40.3119 5.23201 41.2719 5.23201C42.2479 5.23201 43.0959 5.40401 43.8159 5.74801C44.5359 6.09201 45.1359 6.556 45.6159 7.14001C46.0959 7.72401 46.4519 8.416 46.6839 9.21601C46.9159 10.016 47.0319 10.872 47.0319 11.784C47.0319 12.776 46.8959 13.672 46.6239 14.472C46.3519 15.272 45.9639 15.96 45.4599 16.536C44.9559 17.112 44.3479 17.556 43.6359 17.868C42.9239 18.18 42.1359 18.336 41.2719 18.336ZM45.4959 11.784C45.4959 11.048 45.4159 10.36 45.2559 9.72001C45.0959 9.08 44.8479 8.52401 44.5119 8.05201C44.1759 7.58001 43.7439 7.20801 43.2159 6.93601C42.6879 6.66401 42.0399 6.52801 41.2719 6.52801C40.5199 6.52801 39.8759 6.67601 39.3399 6.97201C38.8039 7.26801 38.3679 7.66001 38.0319 8.14801C37.6959 8.63601 37.4479 9.196 37.2879 9.82801C37.1279 10.46 37.0479 11.112 37.0479 11.784C37.0479 12.552 37.1399 13.26 37.3239 13.908C37.5079 14.556 37.7759 15.112 38.1279 15.576C38.4799 16.04 38.9199 16.4 39.4479 16.656C39.9759 16.912 40.5839 17.04 41.2719 17.04C42.0239 17.04 42.6679 16.892 43.2039 16.596C43.7399 16.3 44.1759 15.904 44.5119 15.408C44.8479 14.912 45.0959 14.352 45.2559 13.728C45.4159 13.104 45.4959 12.456 45.4959 11.784ZM50.0469 18H48.6069V5.56801H50.0469V7.29601C50.6229 6.688 51.2189 6.19201 51.8349 5.80801C52.4509 5.42401 53.1909 5.23201 54.0549 5.23201C54.8229 5.23201 55.5349 5.36401 56.1909 5.62801C56.8469 5.89201 57.3989 6.352 57.8469 7.00801C58.1509 7.45601 58.3309 7.91601 58.3869 8.38801C58.4429 8.86001 58.4709 9.35201 58.4709 9.86401V18H57.0309V9.88801C57.0309 8.768 56.7829 7.92801 56.2869 7.36801C55.7909 6.808 54.9669 6.52801 53.8149 6.52801C53.3669 6.52801 52.9589 6.59601 52.5909 6.73201C52.2229 6.86801 51.8909 7.04801 51.5949 7.27201C51.2989 7.49601 51.0469 7.75201 50.8389 8.04001C50.6309 8.32801 50.4709 8.63201 50.3589 8.95201C50.2149 9.35201 50.1269 9.73601 50.0949 10.104C50.0629 10.472 50.0469 10.872 50.0469 11.304V18ZM65.8298 18.336C65.0298 18.32 64.2818 18.176 63.5858 17.904C62.8898 17.632 62.2818 17.224 61.7618 16.68C61.2418 16.136 60.8298 15.456 60.5258 14.64C60.2218 13.824 60.0698 12.872 60.0698 11.784C60.0698 10.872 60.1898 10.02 60.4298 9.22801C60.6698 8.436 61.0298 7.74401 61.5098 7.15201C61.9898 6.56 62.5898 6.09201 63.3098 5.74801C64.0298 5.40401 64.8698 5.23201 65.8298 5.23201C66.8058 5.23201 67.6538 5.40401 68.3738 5.74801C69.0938 6.09201 69.6938 6.556 70.1738 7.14001C70.6538 7.72401 71.0098 8.416 71.2418 9.21601C71.4738 10.016 71.5898 10.872 71.5898 11.784C71.5898 12.776 71.4538 13.672 71.1818 14.472C70.9098 15.272 70.5218 15.96 70.0178 16.536C69.5138 17.112 68.9058 17.556 68.1938 17.868C67.4818 18.18 66.6938 18.336 65.8298 18.336ZM70.0538 11.784C70.0538 11.048 69.9738 10.36 69.8138 9.72001C69.6538 9.08 69.4058 8.52401 69.0698 8.05201C68.7338 7.58001 68.3018 7.20801 67.7738 6.93601C67.2458 6.66401 66.5978 6.52801 65.8298 6.52801C65.0778 6.52801 64.4338 6.67601 63.8978 6.97201C63.3618 7.26801 62.9258 7.66001 62.5898 8.14801C62.2538 8.63601 62.0058 9.196 61.8458 9.82801C61.6858 10.46 61.6058 11.112 61.6058 11.784C61.6058 12.552 61.6978 13.26 61.8818 13.908C62.0658 14.556 62.3338 15.112 62.6858 15.576C63.0378 16.04 63.4778 16.4 64.0058 16.656C64.5338 16.912 65.1418 17.04 65.8298 17.04C66.5818 17.04 67.2258 16.892 67.7618 16.596C68.2978 16.3 68.7338 15.904 69.0698 15.408C69.4058 14.912 69.6538 14.352 69.8138 13.728C69.9738 13.104 70.0538 12.456 70.0538 11.784Z" fill="#333333"/>
</svg>
