<svg width="23" height="24" viewBox="0 0 23 24" fill="none" xmlns="http://www.w3.org/2000/svg">
<g id="User White">
<g id="User White_2">
<path id="Combined Shape" fill-rule="evenodd" clip-rule="evenodd" d="M23 19.1132C23 22.6218 18 24.0001 11.5 24.0001C5 24.0001 0 23.0227 0 19.1132C0 15.2037 5.14873 11.2942 11.5 11.2942C17.8513 11.2942 23 15.2037 23 19.1132ZM22 18.8876C22 21.8565 17.4347 23.0227 11.5 23.0227C5.56518 23.0227 0.999958 22.1957 0.999958 18.8876C0.999958 15.5796 5.70097 12.2716 11.5 12.2716C17.2989 12.2716 22 15.5796 22 18.8876Z" fill="white"/>
<path id="Combined Shape_2" fill-rule="evenodd" clip-rule="evenodd" d="M17.25 4.94118C17.25 7.67011 14.9974 9.88235 12.2188 9.88235C9.44007 9.88235 7.1875 7.67011 7.1875 4.94118C7.1875 2.21224 9.44007 0 12.2188 0C14.9974 0 17.25 2.21224 17.25 4.94118ZM16.2437 4.94118C16.2437 7.12433 14.4417 8.89412 12.2187 8.89412C9.99578 8.89412 8.19373 7.12433 8.19373 4.94118C8.19373 2.75803 9.99578 0.988235 12.2187 0.988235C14.4417 0.988235 16.2437 2.75803 16.2437 4.94118Z" fill="white"/>
</g>
</g>
</svg>
