<svg width="36" height="22" viewBox="0 0 36 22" fill="none" xmlns="http://www.w3.org/2000/svg">
<path d="M8.38327 8.49218L9.15627 13.9046H11.0566L14.5966 7.20288H12.6003L11.0966 10.3106C10.8836 10.7516 10.6999 11.1512 10.5419 11.5172C10.5128 11.1356 10.4811 10.7644 10.4429 10.3858L10.1363 7.20304H7.10144L10.2591 9.6436L8.38327 8.49218Z" fill="#010002"/>
<path d="M15.9603 13.9045L17.2618 7.20288H15.4753L14.172 13.9045H15.9603Z" fill="#212121"/>
<path d="M17.0083 13.5096C17.427 13.816 18.1636 13.9996 18.9785 13.9996C20.6695 13.9996 21.804 13.0668 21.804 11.679C21.804 10.9204 21.35 10.3181 20.4195 9.84096C19.8963 9.55608 19.5808 9.36382 19.5808 9.12208C19.5808 8.89596 19.8248 8.65194 20.3998 8.65194C20.9593 8.65194 21.3911 8.86568 21.4698 8.90834L21.6738 9.01789L22.2446 7.52413L22.0943 7.44371C21.6685 7.21417 21.1376 7.1012 20.4748 7.1012C18.8553 7.1012 17.7245 8.02455 17.7245 9.34657C17.7245 10.3061 18.497 10.8385 19.1745 11.1952C19.8133 11.518 19.938 11.7026 19.938 11.9125C19.938 12.3139 19.4925 12.4578 19.1118 12.4578C18.6143 12.4578 18.0966 12.3198 17.691 12.0826L17.4893 11.9642L16.8851 13.4185L17.0083 13.5096Z" fill="#212121"/>
<path fill-rule="evenodd" clip-rule="evenodd" d="M24.2954 12.2669L23.5277 13.9045H21.6129L24.9526 7.20276H27.0289L27.8336 13.9045H25.9774L25.8432 12.2669H24.2954ZM25.6099 9.26304C25.5384 9.44243 25.4649 9.61255 25.3934 9.76346L24.8834 10.8467H25.7512L25.6451 9.70062C25.6397 9.62715 25.6331 9.54754 25.6262 9.46322C25.6208 9.39901 25.6153 9.33207 25.6099 9.26304Z" fill="#212121"/>
<path fill-rule="evenodd" clip-rule="evenodd" d="M0 22H36V0H0V22ZM35.5062 21.4003H0.434217V0.492364H35.5062V21.4003Z" fill="#212121"/>
</svg>
