<svg width="36" height="22" viewBox="0 0 36 22" fill="none" xmlns="http://www.w3.org/2000/svg">
<path fill-rule="evenodd" clip-rule="evenodd" d="M17.9985 5.80944C19.2725 4.68506 20.9623 4.00048 22.8162 4C26.7834 3.99903 30 7.13176 30 10.9964V10.9998C30.001 14.8644 26.7864 17.9986 22.8191 18C20.9638 18.0005 19.273 17.3149 17.998 16.1901C18.0004 16.188 18.0028 16.1861 18.0052 16.1842L18.0052 16.1842C18.009 16.1813 18.0128 16.1784 18.0164 16.1746H18.0173C18.2795 15.9419 18.5233 15.6919 18.7468 15.4249H17.2636C17.4911 15.6962 17.7319 15.9554 17.998 16.1896C16.7235 17.3135 15.0347 17.9976 13.1829 17.9976C9.21804 17.9976 6 14.8624 6 10.9998C6 7.15204 9.19326 4.02655 13.1368 4.00145H13.1829C15.0352 4.00145 16.724 4.68651 17.9985 5.80944ZM11.4623 11.4811C11.5688 11.4815 11.5978 11.4899 11.6167 11.4953C11.621 11.4966 11.6248 11.4977 11.6288 11.4985C11.6437 11.6235 11.5481 12.2115 11.0877 12.2115C10.8503 12.2115 10.7884 12.0358 10.7884 11.9305C10.7884 11.7263 10.9019 11.4811 11.4623 11.4811ZM24.0136 11.4952C23.9945 11.4898 23.9653 11.4815 23.8598 11.4811C23.2993 11.4811 23.1858 11.7263 23.1858 11.9305C23.1858 12.0358 23.2473 12.2115 23.4851 12.2115C23.9455 12.2115 24.0406 11.6235 24.0263 11.4985C24.022 11.4976 24.0181 11.4965 24.0136 11.4952ZM29.0872 12.4037C29.0565 12.4191 29.0322 12.4433 29.0149 12.4737C28.9975 12.5041 28.9886 12.5364 28.9886 12.5678C28.9886 12.6002 28.9975 12.632 29.0139 12.6615C29.0322 12.6914 29.0555 12.7141 29.0862 12.732C29.1169 12.7484 29.1487 12.758 29.1819 12.758C29.2151 12.758 29.2478 12.7484 29.2775 12.732C29.3082 12.7151 29.332 12.6919 29.3498 12.6615C29.3672 12.6315 29.3751 12.6002 29.3751 12.5678C29.3751 12.5364 29.3662 12.5041 29.3489 12.4737C29.3315 12.4437 29.3072 12.4206 29.2765 12.4037C29.2458 12.3868 29.2146 12.3786 29.1819 12.3786C29.1501 12.3786 29.1179 12.3873 29.0872 12.4037ZM29.3945 14.6877C29.3573 14.6679 29.3196 14.6577 29.281 14.6577C29.2413 14.6577 29.2037 14.6679 29.167 14.6877C29.1303 14.7075 29.1001 14.735 29.0798 14.7717C29.0585 14.8074 29.0491 14.8451 29.0491 14.8837C29.0491 14.9223 29.0595 14.9604 29.0798 14.9957C29.1011 15.0314 29.1298 15.0604 29.166 15.0802C29.2027 15.1 29.2413 15.1101 29.282 15.1101C29.3216 15.1101 29.3603 15.1 29.3964 15.0802C29.4326 15.0604 29.4618 15.0314 29.4822 14.9957C29.503 14.9604 29.5129 14.9228 29.5129 14.8837C29.5129 14.8446 29.5025 14.8074 29.4822 14.7717C29.4609 14.734 29.4316 14.7075 29.3945 14.6877ZM29.3394 15.0102L29.3176 14.9716C29.3003 14.9416 29.2859 14.9218 29.275 14.9141C29.2681 14.9093 29.2572 14.9054 29.2433 14.9054H29.22V15.0092H29.1794V14.7654H29.2656C29.2953 14.7654 29.3167 14.7678 29.3285 14.7726C29.3419 14.7775 29.3533 14.7842 29.3603 14.7963C29.3682 14.8074 29.3717 14.8195 29.3717 14.832C29.3717 14.8499 29.3647 14.8649 29.3523 14.8789C29.3394 14.8914 29.3216 14.8996 29.3003 14.9011C29.3092 14.904 29.3162 14.9088 29.3216 14.9141C29.332 14.9238 29.3439 14.9397 29.3588 14.9619L29.3895 15.0097H29.3394V15.0102ZM29.2681 14.8721C29.2914 14.8721 29.3067 14.8702 29.3157 14.862C29.3241 14.8547 29.328 14.847 29.328 14.8354C29.328 14.8277 29.3261 14.8224 29.3221 14.8156C29.3206 14.8146 29.3191 14.8134 29.3176 14.8121C29.3141 14.8092 29.3102 14.806 29.3048 14.804C29.2968 14.8011 29.2844 14.7997 29.2651 14.7997H29.2185V14.8721H29.2681ZM29.2735 12.5152C29.2735 12.5022 29.2706 12.4901 29.2621 12.4795C29.2537 12.4688 29.2428 12.4606 29.2304 12.4563C29.218 12.451 29.1962 12.4486 29.167 12.4486H29.0803V12.6919H29.1219V12.5886H29.1447C29.1591 12.5886 29.169 12.5915 29.1774 12.5977C29.1878 12.605 29.2017 12.6243 29.219 12.6547L29.2413 12.6924H29.2909L29.2602 12.6441C29.2458 12.6209 29.2339 12.6064 29.2235 12.5963C29.2185 12.592 29.2121 12.5876 29.2022 12.5837C29.223 12.5813 29.2408 12.5755 29.2537 12.5615C29.2666 12.548 29.2735 12.5331 29.2735 12.5152ZM29.167 12.4814C29.1868 12.4814 29.1992 12.4838 29.2076 12.4862C29.2151 12.4896 29.2205 12.4935 29.2245 12.4983C29.2289 12.5051 29.2309 12.5099 29.2309 12.5181C29.2309 12.5287 29.2265 12.5379 29.219 12.5451C29.2096 12.5524 29.1943 12.5553 29.171 12.5553H29.1219V12.4819H29.167V12.4814ZM17.3454 6.53216H18.7106C18.9118 6.76968 19.0986 7.01976 19.2681 7.28142H16.8325C16.9896 7.03086 17.162 6.77403 17.3454 6.53216ZM19.6824 8.01669H16.4083C16.2642 8.28195 16.1535 8.5027 16.0856 8.63826L16.0856 8.63831L16.0856 8.63833L16.0855 8.63839L16.0855 8.6384L16.0855 8.63846C16.0547 8.69992 16.0327 8.74385 16.0203 8.76644H19.9921C19.9019 8.5096 19.7988 8.25904 19.6824 8.01669ZM8.93211 12.7822L9.36769 10.1066L8.38503 12.7822H7.85828L7.78989 10.1066L7.32458 12.7822H6.58672L7.19822 9.23377H8.31417L8.35332 11.4111L9.10704 9.23377H10.3176L9.71457 12.7822H8.93211ZM11.5413 12.7764L11.5411 12.7783V12.7764H11.5413ZM12.2146 12.7764H11.5413L11.5664 12.493C11.5649 12.4932 11.5601 12.4985 11.5519 12.5076C11.4927 12.573 11.2553 12.8353 10.782 12.8353C10.4995 12.8353 10.0436 12.6851 10.0436 12.0324C10.0436 11.2025 10.7384 10.9273 11.3999 10.9273C11.504 10.9273 11.7284 10.9457 11.7284 10.9457C11.7284 10.9457 11.7537 10.895 11.7537 10.7579C11.7537 10.5324 11.5456 10.5015 11.2607 10.5015C10.7587 10.5015 10.4272 10.6324 10.4272 10.6324L10.5382 9.99028C10.5382 9.99028 10.9405 9.82613 11.4643 9.82613C11.7354 9.82613 12.5149 9.85413 12.5149 10.7246L12.2146 12.7764ZM14.3875 11.8731C14.3875 12.8292 13.4695 12.8225 13.2515 12.8209L13.2309 12.8208C12.6378 12.8208 12.4236 12.747 12.38 12.732L12.3726 12.7295L12.4747 12.0778C12.4749 12.0767 12.4872 12.0803 12.5095 12.0868C12.6019 12.1138 12.8662 12.1912 13.1541 12.1912C13.3603 12.1912 13.6278 12.1715 13.6278 11.9315C13.6278 11.7902 13.4796 11.7177 13.2997 11.6299C13.0226 11.4945 12.6705 11.3226 12.6705 10.8052C12.6705 10.0526 13.2443 9.83241 13.8102 9.83241C14.2473 9.83241 14.5159 9.89082 14.5159 9.89082L14.4192 10.5484C14.4192 10.5484 14.0045 10.5151 13.8969 10.5151C13.6249 10.5151 13.4767 10.573 13.4767 10.7584C13.4765 10.9028 13.6137 10.9637 13.7816 11.0382C14.0464 11.1555 14.3875 11.3068 14.3875 11.8731ZM15.6808 12.1199C15.6446 12.1259 15.606 12.1323 15.5699 12.1323C15.3038 12.1323 15.2745 11.9948 15.2909 11.8924L15.5059 10.6H15.9108L16.0084 9.89855H15.6269L15.7047 9.46309H14.94C14.9232 9.47902 14.4886 11.9137 14.4886 12.2091C14.4886 12.6494 14.7418 12.8435 15.0981 12.8406C15.3415 12.8389 15.5381 12.7814 15.6353 12.7529L15.6353 12.7529C15.6495 12.7488 15.6616 12.7452 15.6715 12.7426L15.7671 12.1097C15.7425 12.1097 15.7126 12.1146 15.6808 12.1199ZM17.2517 9.81599C18.0912 9.81599 18.3424 10.4146 18.3424 10.9056C18.3424 11.1021 18.2413 11.5849 18.2413 11.5849H16.6873C16.6873 11.5849 16.5436 12.1811 17.3647 12.1811C17.7498 12.1811 18.1769 11.9977 18.1769 11.9977L18.0421 12.716C18.0421 12.716 17.7953 12.8386 17.2344 12.8386C16.6264 12.8386 15.9133 12.5881 15.9133 11.5356C15.9138 10.6237 16.4827 9.81648 17.2517 9.81599ZM16.7289 14.7036H19.2775C19.4316 14.4632 19.5714 14.2131 19.6957 13.9543H16.3048C16.4291 14.2146 16.5738 14.4622 16.7289 14.7036ZM19.1065 12.7875H18.3216L18.7988 9.89951H19.5109L19.4425 10.3181C19.4425 10.3181 19.6962 9.86282 20.0387 9.86282C20.1383 9.86282 20.1863 9.87248 20.1863 9.87248C20.0847 10.0743 19.995 10.2592 19.9019 10.7366C19.4642 10.5851 19.3596 11.2378 19.2113 12.1625C19.1796 12.3601 19.1459 12.5702 19.1065 12.7875ZM21.4281 12.8449C21.6858 12.8449 22.0971 12.7426 22.0971 12.7426L22.2339 11.9296C22.2339 11.9296 21.8598 12.1126 21.6016 12.1126C21.0585 12.1126 20.8409 11.709 20.8409 11.2759C20.8409 10.3968 21.3077 9.91303 21.828 9.91303C22.217 9.91303 22.5297 10.1259 22.5297 10.1259L22.6546 9.3366C22.6546 9.3366 22.1923 9.15411 21.7934 9.15411C20.9108 9.15411 20.052 9.90048 20.052 11.302C20.052 12.2313 20.5154 12.8449 21.4281 12.8449ZM23.9381 12.7783L23.9638 12.493C23.9623 12.4932 23.9573 12.4987 23.9486 12.5082L23.9486 12.5082C23.8882 12.5745 23.651 12.8353 23.1794 12.8353C22.8969 12.8353 22.441 12.6851 22.441 12.0324C22.441 11.2025 23.1358 10.9273 23.7968 10.9273C23.9009 10.9273 24.1259 10.9457 24.1259 10.9457C24.1259 10.9457 24.1516 10.8955 24.1516 10.7584C24.1516 10.5329 23.9435 10.502 23.6581 10.502C23.1561 10.502 22.8251 10.6328 22.8251 10.6328L22.9361 9.99076C22.9361 9.99076 23.3385 9.82661 23.8627 9.82661C24.1333 9.82661 24.9133 9.85462 24.9128 10.7251L24.6125 12.7769C24.612 12.7783 23.9381 12.7783 23.9381 12.7783ZM24.7423 12.7875H25.5273C25.5666 12.5703 25.6002 12.3604 25.6319 12.1629L25.6319 12.1628C25.7803 11.2379 25.885 10.5851 26.3231 10.7366C26.4158 10.2592 26.5064 10.0743 26.6075 9.87248C26.6075 9.87248 26.56 9.86282 26.4604 9.86282C26.1179 9.86282 25.8637 10.3181 25.8637 10.3181L25.9321 9.89951H25.2195L24.7423 12.7875ZM29.3835 12.4548C29.4049 12.4911 29.4143 12.5287 29.4143 12.5678C29.4143 12.6069 29.4044 12.6436 29.3835 12.6798C29.3632 12.7155 29.3345 12.7431 29.2978 12.7643C29.2616 12.7841 29.223 12.7942 29.1824 12.7942C29.1427 12.7942 29.1046 12.7841 29.0679 12.7643C29.0312 12.7431 29.0025 12.7155 28.9822 12.6798C28.9613 12.6436 28.9514 12.6069 28.9514 12.5678C28.9514 12.5282 28.9618 12.4906 28.9822 12.4548C29.0025 12.4191 29.0327 12.3902 29.0689 12.3708C29.1065 12.351 29.1437 12.3409 29.1824 12.3409C29.222 12.3409 29.2597 12.351 29.2963 12.3708C29.334 12.3906 29.3627 12.4182 29.3835 12.4548ZM28.4331 9.23811L28.2676 10.235C28.2676 10.235 27.9797 9.84737 27.5287 9.84641C26.828 9.84641 26.2443 10.6705 26.2443 11.6158C26.2443 12.227 26.556 12.8251 27.1918 12.8251C27.6506 12.8251 27.9044 12.5133 27.9044 12.5133L27.8712 12.7793H28.615L29.1997 9.23666L28.4331 9.23811ZM17.6065 10.994H16.7577C16.7577 10.9452 16.838 10.4832 17.2547 10.4832C17.6515 10.4832 17.6161 10.883 17.6078 10.9768V10.9768C17.6071 10.985 17.6065 10.9909 17.6065 10.994ZM28.0773 11.1818C28.0773 10.7482 27.9361 10.5643 27.661 10.5643C27.3246 10.5643 27.0585 10.9447 27.059 11.5226C27.059 11.875 27.1878 12.101 27.4633 12.101C27.8776 12.101 28.0773 11.5743 28.0773 11.1818Z" fill="#212121"/>
<path fill-rule="evenodd" clip-rule="evenodd" d="M0 22H36V0H0V22ZM35.5062 21.4003H0.434217V0.492364H35.5062V21.4003Z" fill="#212121"/>
</svg>
